<svg width="80" height="80" viewBox="0 0 80 80" fill="none" xmlns="http://www.w3.org/2000/svg">
<path d="M60.6 26.7978L62.145 25.253C64.7043 22.6935 68.8543 22.6935 71.4137 25.253C73.9733 27.8125 73.9733 31.9623 71.4137 34.5217L69.869 36.0667M60.6 26.7978C60.6 26.7978 60.7933 30.0805 63.6897 32.977C66.5863 35.8734 69.869 36.0667 69.869 36.0667M60.6 26.7978L46.398 40.9997C45.436 41.9617 44.955 42.4427 44.5413 42.9731C44.0537 43.5987 43.6353 44.2757 43.294 44.9917C43.0047 45.5991 42.7893 46.2441 42.3593 47.5347L40.5363 53.0034M69.869 36.0667L55.667 50.2687C54.705 51.2307 54.224 51.7117 53.6937 52.1254C53.068 52.6131 52.391 53.0314 51.675 53.3727C51.0677 53.6621 50.4227 53.8774 49.132 54.3074L43.6633 56.1304M40.5363 53.0034L40.0907 54.3404C39.879 54.9754 40.0443 55.6757 40.5177 56.1491C40.991 56.6224 41.6913 56.7877 42.3263 56.5761L43.6633 56.1304M40.5363 53.0034L43.6633 56.1304M26.6667 43.3334H35M26.6667 30.0001H48.3333M26.6667 56.6667H31.6667M10 33.3334C10 20.7626 10 14.4772 13.9052 10.572C17.8105 6.66675 24.0959 6.66675 36.6667 6.66675H43.3333C55.904 6.66675 62.1897 6.66675 66.0947 10.572C70 14.4772 70 20.7626 70 33.3334V46.6667C70 59.2374 70 65.5231 66.0947 69.4281C62.1897 73.3334 55.904 73.3334 43.3333 73.3334H36.6667C24.0959 73.3334 17.8105 73.3334 13.9052 69.4281C10 65.5231 10 59.2374 10 46.6667V33.3334Z" stroke="#705200" stroke-width="2" stroke-linecap="round"/>
</svg>
