<svg width="99" height="24" viewBox="0 0 99 24" fill="none" xmlns="http://www.w3.org/2000/svg">
<g clip-path="url(#clip0_663_4433)">
<path d="M19.1876 21.4749C21.474 19.1785 22.7586 16.064 22.7586 12.8164C22.7586 9.5689 21.474 6.45433 19.1876 4.15798C16.9011 1.86162 13.8 0.571534 10.5664 0.571533C7.33289 0.571533 4.23178 1.86161 1.94531 4.15798L5.96851 8.19856C6.60336 8.83616 7.62852 8.80433 8.43617 8.41045C9.09389 8.0897 9.82137 7.91845 10.5664 7.91845C11.8599 7.91845 13.1003 8.4345 14.0149 9.35308C14.9295 10.2716 15.4433 11.5174 15.4433 12.8164C15.4433 13.5647 15.2728 14.2954 14.9534 14.9559C14.5613 15.7671 14.5296 16.7967 15.1644 17.4343L19.1876 21.4749Z" fill="#514E4E"/>
<path d="M17.069 23.4287H11.1004C10.2381 23.4287 9.41115 23.0847 8.80144 22.4723L0.952266 14.5892C0.34254 13.9769 0 13.1463 0 12.2803V6.28589L17.069 23.4287Z" fill="#514E4E"/>
<path d="M6.09607 23.4286H2.43842C1.09172 23.4286 0 22.3322 0 20.9796V17.3062L6.09607 23.4286Z" fill="#514E4E"/>
<path d="M33.5749 19.4285H30.5195V4.87988H36.2263C37.3225 4.87988 38.2575 5.07417 39.0313 5.46274C39.8088 5.85512 40.4025 6.4075 40.8121 7.11988C41.2256 7.83226 41.4323 8.67036 41.4323 9.63417C41.4323 10.598 41.2237 11.4285 40.8064 12.1256C40.393 12.8227 39.7918 13.3542 39.0028 13.7199C38.2176 14.0894 37.2675 14.2742 36.1523 14.2742H32.3288V11.7999H35.6516C36.2433 11.7999 36.7326 11.7199 37.1195 11.5599C37.5026 11.3961 37.7909 11.1542 37.9844 10.8342C38.174 10.5142 38.2688 10.1142 38.2688 9.63417C38.2688 9.14655 38.174 8.73703 37.9844 8.4056C37.7909 8.07798 37.5007 7.82845 37.1138 7.65703C36.7232 7.4856 36.2338 7.39988 35.6459 7.39988H33.5749V19.4285ZM41.9444 19.4285H38.559L35.0314 12.8056H38.3371L41.9444 19.4285ZM49.8587 14.7885V8.50845H52.8628V19.4285H49.9782V17.4456H49.8587C49.6121 18.078 49.2082 18.5904 48.6468 18.9827C48.0816 19.3789 47.3913 19.5732 46.5757 19.5656C45.8475 19.5656 45.2064 19.4018 44.6526 19.0742C44.0988 18.7427 43.6683 18.2723 43.3611 17.6627C43.0538 17.0494 42.9002 16.3161 42.9002 15.4627V8.50845H45.9044V14.937C45.9044 15.5732 46.075 16.0799 46.4164 16.457C46.7616 16.8304 47.2187 17.0132 47.7876 17.0056C48.1518 17.0056 48.4894 16.9237 48.8004 16.7599C49.1114 16.5923 49.3656 16.3427 49.5628 16.0113C49.76 15.6799 49.8587 15.2723 49.8587 14.7885ZM58.6037 19.6056C57.773 19.6056 57.0238 19.3904 56.3563 18.9599C55.6887 18.5294 55.1595 17.897 54.7688 17.0627C54.3819 16.2246 54.1885 15.1999 54.1885 13.9885C54.1885 12.7389 54.3895 11.697 54.7916 10.8627C55.1937 10.0285 55.7285 9.4056 56.3961 8.99417C57.0637 8.57893 57.7919 8.37131 58.5809 8.37131C59.1916 8.37131 59.7018 8.47417 60.1114 8.67988C60.5173 8.8856 60.8473 9.14083 61.1014 9.4456C61.3518 9.75417 61.5433 10.057 61.6761 10.3542H61.7614V4.87988H64.7769V19.4285H61.8126V17.6799H61.6761C61.5395 17.9808 61.3404 18.278 61.0787 18.5713C60.8207 18.8685 60.4888 19.1142 60.083 19.3085C59.6771 19.5065 59.184 19.6056 58.6037 19.6056ZM59.5425 17.1999C60.0318 17.1999 60.4452 17.0646 60.7828 16.7942C61.1242 16.5275 61.384 16.1523 61.5623 15.6685C61.7406 15.1885 61.8297 14.6246 61.8297 13.977C61.8297 13.3256 61.7425 12.7618 61.568 12.2856C61.3935 11.8056 61.1337 11.4342 60.7885 11.1713C60.4471 10.9085 60.0318 10.777 59.5425 10.777C59.0494 10.777 58.6359 10.9142 58.3021 11.1885C57.9645 11.4589 57.7085 11.8342 57.534 12.3142C57.3557 12.7942 57.2666 13.3485 57.2666 13.977C57.2666 14.6094 57.3557 15.1675 57.534 15.6513C57.7085 16.1389 57.9645 16.5199 58.3021 16.7942C58.6435 17.0646 59.0569 17.1999 59.5425 17.1999ZM73.4992 14.7885V8.50845H76.5033V19.4285H73.613V17.4456H73.4992C73.2526 18.078 72.8468 18.5904 72.2816 18.9827C71.7164 19.3789 71.0261 19.5732 70.2106 19.5656C69.4861 19.5656 68.8469 19.4018 68.2932 19.0742C67.7356 18.7427 67.3032 18.2723 66.9959 17.6627C66.6887 17.0494 66.535 16.3161 66.535 15.4627V8.50845H69.5392V14.937C69.5392 15.5732 69.7118 16.0799 70.0569 16.457C70.3983 16.8304 70.8554 17.0132 71.4282 17.0056C71.7885 17.0056 72.1242 16.9237 72.4352 16.7599C72.75 16.5923 73.0061 16.3427 73.2033 16.0113C73.4006 15.6799 73.4992 15.2723 73.4992 14.7885ZM82.9781 14.0113L80.9925 16.2856L81.0038 12.6627H81.4419L84.9126 8.50845H88.3776L83.7064 14.0113H82.9781ZM81.2769 19.4285H78.2728V4.87988H81.2769V19.4285ZM88.5768 19.4285H85.0492L81.863 14.6799L83.8657 12.5313L88.5768 19.4285ZM92.2921 19.6342C91.6056 19.6342 90.9892 19.5123 90.443 19.2685C89.893 19.0246 89.4625 18.6608 89.1514 18.177C88.8404 17.697 88.6849 17.0989 88.6849 16.3827C88.6849 15.7694 88.7949 15.2589 89.0149 14.8513C89.2349 14.4475 89.5364 14.118 89.9195 13.8627C90.3026 13.6075 90.7369 13.4151 91.2225 13.2856C91.708 13.1561 92.2238 13.0646 92.77 13.0113C93.3997 12.9542 93.9061 12.8951 94.2892 12.8342C94.6685 12.777 94.9473 12.6875 95.1256 12.5656C95.3038 12.4475 95.393 12.2742 95.393 12.0456V11.9942C95.393 11.5485 95.2526 11.2018 94.9719 10.9542C94.6913 10.7065 94.2949 10.5827 93.7828 10.5827C93.2442 10.5827 92.8137 10.7008 92.4913 10.937C92.1726 11.1732 91.9602 11.4742 91.854 11.8399L89.0661 11.617C89.2064 10.9504 89.4852 10.3751 89.9025 9.89131C90.3159 9.4075 90.8526 9.03417 91.5126 8.77131C92.1688 8.50464 92.9313 8.37131 93.7999 8.37131C94.403 8.37131 94.9795 8.44369 95.5295 8.58845C96.0833 8.73322 96.5745 8.95226 97.0032 9.2456C97.4356 9.54274 97.7788 9.9256 98.033 10.3942C98.2833 10.8627 98.4085 11.4189 98.4085 12.0627V19.4285H95.5409V17.9027H95.4613C95.2868 18.2494 95.0535 18.5504 94.7614 18.8056C94.4694 19.0646 94.1204 19.2665 93.7145 19.4113C93.3049 19.5599 92.8307 19.6342 92.2921 19.6342ZM93.1569 17.5427C93.6007 17.5427 93.9914 17.4532 94.329 17.2742C94.6704 17.0951 94.9359 16.8551 95.1256 16.5542C95.319 16.2494 95.4157 15.9085 95.4157 15.5313V14.3713C95.3247 14.4285 95.1957 14.4837 95.0288 14.537C94.8657 14.5865 94.6837 14.6323 94.4826 14.6742C94.2816 14.7123 94.0806 14.7465 93.8795 14.777C93.6785 14.8037 93.4964 14.8304 93.3333 14.857C92.9768 14.9104 92.6657 14.9942 92.4002 15.1085C92.1347 15.2227 91.9299 15.3751 91.7857 15.5656C91.6378 15.7599 91.5638 15.9999 91.5638 16.2856C91.5638 16.6932 91.7137 17.0056 92.0133 17.2227C92.3092 17.4361 92.6904 17.5427 93.1569 17.5427Z" fill="#4A4A4A"/>
</g>
<defs>
<clipPath id="clip0_663_4433">
<rect width="99" height="24" fill="white"/>
</clipPath>
</defs>
</svg>
