<svg width="110" height="24" viewBox="0 0 110 24" fill="none" xmlns="http://www.w3.org/2000/svg">
<g clip-path="url(#clip0_663_4445)">
<path d="M35.9067 17.3433L21.7247 3.47957C21.3165 3.08057 20.769 2.85725 20.199 2.85725C18.2374 2.85725 17.2689 5.2475 18.6749 6.61896L33.8955 21.4667C34.6287 22.182 34.1236 23.4287 33.1006 23.4287H5.5039C4.89927 23.4287 4.31939 23.1879 3.89185 22.7592L0.667734 19.5267C0.240191 19.098 0 18.5167 0 17.9104V6.65633L14.182 20.5206C14.5902 20.9196 15.1377 21.143 15.7078 21.143C17.6694 21.143 18.6378 18.7527 17.2319 17.3812L2.01124 2.5335C1.27798 1.8182 1.78308 0.571533 2.80616 0.571533H30.4028C31.0075 0.571533 31.5873 0.812349 32.0149 1.241L35.239 4.47349C35.6666 4.90214 35.9067 5.48353 35.9067 6.08973V17.3433Z" fill="#514E4E"/>
<path d="M43.5669 15.8801L46.0576 15.1829C46.1222 15.5563 46.2684 15.8839 46.4964 16.1658C46.7244 16.4439 47.0208 16.6591 47.3855 16.8115C47.7503 16.9639 48.1797 17.0401 48.6736 17.0401C49.445 17.0401 50.0225 16.8648 50.4063 16.5143C50.7938 16.1601 50.9876 15.7296 50.9876 15.2229C50.9876 14.8229 50.8679 14.4896 50.6286 14.2229C50.3892 13.9563 50.0529 13.7296 49.6197 13.5429C49.1866 13.3563 48.685 13.1753 48.1151 13.0001C47.5831 12.8401 47.0569 12.6667 46.5363 12.4801C46.0196 12.2934 45.5465 12.061 45.1172 11.7829C44.6916 11.501 44.3572 11.1372 44.114 10.6915C43.8671 10.2458 43.7436 9.68197 43.7436 9.00006C43.7436 8.14673 43.9526 7.42102 44.3705 6.82292C44.7923 6.22102 45.3679 5.76768 46.0975 5.46292C46.827 5.15435 47.6724 5.00006 48.6337 5.00006C49.4431 5.00006 50.1745 5.11816 50.828 5.35435C51.4778 5.58673 52.0249 5.92578 52.4695 6.37149C52.9178 6.81721 53.2484 7.36768 53.4612 8.02292L50.9648 8.70292C50.9002 8.40959 50.7539 8.15625 50.526 7.94292C50.298 7.72959 50.0263 7.56006 49.7109 7.43435C49.3918 7.30482 49.046 7.24006 48.6736 7.24006C48.2747 7.22863 47.908 7.28959 47.5736 7.42292C47.2431 7.55625 46.9771 7.74863 46.7757 8.00006C46.5781 8.2553 46.4793 8.54863 46.4793 8.88006C46.4793 9.2534 46.5914 9.55054 46.8156 9.77149C47.0398 9.99244 47.34 10.1791 47.7161 10.3315C48.0885 10.4839 48.5064 10.6343 48.97 10.7829C49.5286 10.9429 50.0871 11.1258 50.6457 11.3315C51.2042 11.5372 51.7172 11.7982 52.1845 12.1143C52.6481 12.4267 53.0223 12.8229 53.3073 13.3029C53.5961 13.7829 53.7405 14.3886 53.7405 15.1201C53.7405 15.8934 53.5562 16.5943 53.1876 17.2229C52.8229 17.8515 52.2757 18.3524 51.5462 18.7258C50.8128 19.0991 49.8952 19.2858 48.7933 19.2858C47.889 19.2858 47.0664 19.1524 46.3254 18.8858C45.5883 18.6153 44.9804 18.2248 44.5016 17.7143C44.0229 17.2001 43.7113 16.5886 43.5669 15.8801ZM55.3363 19.1429V9.14292H57.8897V19.1429H55.3363ZM56.6301 7.86292C56.1514 7.86292 55.76 7.71244 55.456 7.41149C55.1482 7.11054 54.9944 6.74102 54.9944 6.30292C54.9944 5.86102 55.1482 5.49149 55.456 5.19435C55.76 4.8934 56.1514 4.74292 56.6301 4.74292C57.0823 4.74292 57.4641 4.8934 57.7757 5.19435C58.0911 5.49149 58.2488 5.86102 58.2488 6.30292C58.2488 6.74102 58.0911 7.11054 57.7757 7.41149C57.4641 7.71244 57.0823 7.86292 56.6301 7.86292ZM59.8845 19.1429V4.74292H62.4379V19.1429H59.8845ZM64.0907 19.1429V4.74292H66.6669V13.0401H67.3052L70.5938 9.14292H73.9451L69.5394 14.1029L73.9679 19.1429H70.6166L67.2824 15.1829H66.6669V19.1429H64.0907ZM74.6234 19.1429V4.74292H77.1995V13.0401H77.8379L81.1265 9.14292H84.4778L80.0721 14.1029L84.5006 19.1429H81.1493L77.8151 15.1829H77.1995V19.1429H74.6234ZM85.498 19.1429V9.14292H88.0513V19.1429H85.498ZM86.7918 7.86292C86.313 7.86292 85.9216 7.71244 85.6177 7.41149C85.3099 7.11054 85.156 6.74102 85.156 6.30292C85.156 5.86102 85.3099 5.49149 85.6177 5.19435C85.9216 4.8934 86.313 4.74292 86.7918 4.74292C87.2439 4.74292 87.6258 4.8934 87.9374 5.19435C88.2527 5.49149 88.4104 5.86102 88.4104 6.30292C88.4104 6.74102 88.2527 7.11054 87.9374 7.41149C87.6258 7.71244 87.2439 7.86292 86.7918 7.86292ZM92.5995 10.6801L92.2804 10.6401C92.5843 10.1867 93.0194 9.80006 93.5855 9.48006C94.1517 9.16006 94.8204 9.00006 95.5918 9.00006C96.4695 9.00006 97.237 9.21149 97.8944 9.63435C98.5517 10.0534 99.0703 10.6496 99.4503 11.4229C99.8265 12.1963 100.015 13.1029 100.015 14.1429C100.015 15.1829 99.8265 16.0858 99.4503 16.8515C99.0703 17.6172 98.5479 18.2153 97.883 18.6458C97.218 19.0724 96.4543 19.2858 95.5918 19.2858C94.8964 19.2858 94.2847 19.1486 93.7565 18.8743C93.2208 18.6001 92.8085 18.2763 92.5197 17.9029L92.3602 19.1429H90.0405V4.74292H92.5995V10.6801ZM97.2674 14.1429C97.2674 13.301 97.0508 12.6248 96.6177 12.1143C96.1845 11.6001 95.6222 11.3429 94.9306 11.3429C94.5051 11.3429 94.1156 11.4534 93.7622 11.6743C93.4089 11.8915 93.1277 12.2077 92.9187 12.6229C92.7059 13.0343 92.5995 13.541 92.5995 14.1429C92.5995 14.741 92.7059 15.2477 92.9187 15.6629C93.1277 16.0743 93.4089 16.3905 93.7622 16.6115C94.1156 16.8324 94.5051 16.9429 94.9306 16.9429C95.6222 16.9429 96.1845 16.6858 96.6177 16.1715C97.0508 15.6572 97.2674 14.981 97.2674 14.1429ZM109.293 19.1429H106.939L106.74 17.9201C106.406 18.3353 106.029 18.6629 105.611 18.9029C105.193 19.1429 104.631 19.2629 103.924 19.2629C103.259 19.2629 102.678 19.1467 102.18 18.9143C101.683 18.6782 101.293 18.3505 101.012 17.9315C100.735 17.5124 100.596 17.0153 100.596 16.4401C100.596 15.602 100.898 14.9067 101.502 14.3544C102.106 13.7982 103.02 13.4477 104.244 13.3029L106.74 13.0229V12.3201C106.74 12.042 106.613 11.7829 106.358 11.5429C106.107 11.3029 105.708 11.1829 105.161 11.1829C104.682 11.1829 104.268 11.2991 103.919 11.5315C103.565 11.7639 103.328 12.1143 103.206 12.5829L101.012 11.7829C101.278 10.8877 101.783 10.2001 102.528 9.72006C103.273 9.24006 104.19 9.00006 105.281 9.00006C106.611 9.00006 107.612 9.33149 108.285 9.99435C108.957 10.6534 109.293 11.522 109.293 12.6001V19.1429ZM106.74 14.9601V14.8058L104.586 15.0801C104.145 15.1372 103.812 15.2686 103.588 15.4743C103.36 15.6801 103.246 15.9296 103.246 16.2229C103.246 16.5048 103.36 16.741 103.588 16.9315C103.812 17.1258 104.131 17.2229 104.546 17.2229C105.009 17.2229 105.404 17.1353 105.731 16.9601C106.058 16.7886 106.307 16.5372 106.478 16.2058C106.653 15.8705 106.74 15.4553 106.74 14.9601Z" fill="#4A4A4A"/>
</g>
<defs>
<clipPath id="clip0_663_4445">
<rect width="110" height="24" fill="white"/>
</clipPath>
</defs>
</svg>
