<svg width="80" height="80" viewBox="0 0 80 80" fill="none" xmlns="http://www.w3.org/2000/svg">
<path d="M60.214 45.69C59.6746 45.5717 59.1414 45.9131 59.023 46.4525C58.9047 46.992 59.2462 47.5252 59.7856 47.6435L59.9998 46.6667L60.214 45.69ZM61.3782 61.9439C60.8494 62.1031 60.5497 62.6609 60.709 63.1897C60.8682 63.7185 61.426 64.0182 61.9548 63.859L61.6665 62.9014L61.3782 61.9439ZM43.3332 20.0001H42.3332C42.3332 26.8116 36.8113 32.3334 29.9998 32.3334V33.3334V34.3334C37.9159 34.3334 44.3332 27.9162 44.3332 20.0001H43.3332ZM29.9998 33.3334V32.3334C23.1883 32.3334 17.6665 26.8116 17.6665 20.0001H16.6665H15.6665C15.6665 27.9162 22.0838 34.3334 29.9998 34.3334V33.3334ZM16.6665 20.0001H17.6665C17.6665 13.1886 23.1883 7.66675 29.9998 7.66675V6.66675V5.66675C22.0838 5.66675 15.6665 12.084 15.6665 20.0001H16.6665ZM29.9998 6.66675V7.66675C36.8113 7.66675 42.3332 13.1886 42.3332 20.0001H43.3332H44.3332C44.3332 12.084 37.9159 5.66675 29.9998 5.66675V6.66675ZM41.6665 14.4704L42.4992 15.0241C44.1134 12.5965 46.8703 11.0001 49.9998 11.0001V10.0001V9.00008C46.1727 9.00008 42.8029 10.9553 40.8338 13.9167L41.6665 14.4704ZM49.9998 10.0001V11.0001C54.9705 11.0001 58.9998 15.0295 58.9998 20.0001H59.9998H60.9998C60.9998 13.925 56.0751 9.00008 49.9998 9.00008V10.0001ZM59.9998 20.0001H58.9998C58.9998 24.9706 54.9705 29.0001 49.9998 29.0001V30.0001V31.0001C56.0751 31.0001 60.9998 26.0752 60.9998 20.0001H59.9998ZM49.9998 30.0001V29.0001C46.8703 29.0001 44.1134 27.4037 42.4992 24.976L41.6665 25.5297L40.8338 26.0834C42.8029 29.0448 46.1727 31.0001 49.9998 31.0001V30.0001ZM53.3332 56.6667H52.3332C52.3332 59.8349 50.0768 62.8986 46.0029 65.2266C41.9572 67.5384 36.3014 69.0001 29.9998 69.0001V70.0001V71.0001C36.5849 71.0001 42.5958 69.477 46.9951 66.9631C51.3662 64.4653 54.3332 60.8624 54.3332 56.6667H53.3332ZM29.9998 70.0001V69.0001C23.6983 69.0001 18.0425 67.5384 13.9968 65.2266C9.92285 62.8986 7.6665 59.8349 7.6665 56.6667H6.6665H5.6665C5.6665 60.8624 8.6335 64.4653 13.0045 66.9631C17.4039 69.477 23.4147 71.0001 29.9998 71.0001V70.0001ZM6.6665 56.6667H7.6665C7.6665 53.4986 9.92285 50.4349 13.9968 48.1069C18.0425 45.7951 23.6983 44.3334 29.9998 44.3334V43.3334V42.3334C23.4147 42.3334 17.4039 43.8565 13.0045 46.3704C8.6335 48.8681 5.6665 52.4711 5.6665 56.6667H6.6665ZM29.9998 43.3334V44.3334C36.3014 44.3334 41.9572 45.7951 46.0029 48.1069C50.0768 50.4349 52.3332 53.4986 52.3332 56.6667H53.3332H54.3332C54.3332 52.4711 51.3662 48.8681 46.9951 46.3704C42.5958 43.8565 36.5849 42.3334 29.9998 42.3334V43.3334ZM59.9998 46.6667L59.7856 47.6435C62.5963 48.2599 64.9406 49.3373 66.5593 50.6618C68.1788 51.987 68.9998 53.4906 68.9998 55.0001H69.9998H70.9998C70.9998 52.7059 69.7446 50.684 67.8259 49.114C65.9064 47.5434 63.2507 46.3559 60.214 45.69L59.9998 46.6667ZM69.9998 55.0001H68.9998C68.9998 56.3636 68.3322 57.7175 67.0105 58.9453C65.6855 60.1761 63.7494 61.2299 61.3782 61.9439L61.6665 62.9014L61.9548 63.859C64.5379 63.0812 66.7685 61.8999 68.3716 60.4107C69.978 58.9185 70.9998 57.0675 70.9998 55.0001H69.9998Z" fill="#705200"/>
</svg>
