<svg width="32" height="32" viewBox="0 0 32 32" fill="none" xmlns="http://www.w3.org/2000/svg">
<path d="M30.2387 14.7625L28.2387 12.7625C27.9156 12.4399 27.4792 12.2563 27.0227 12.2509C26.5661 12.2455 26.1255 12.4188 25.7949 12.7338L19.2662 6.20503C19.5811 5.87445 19.7544 5.43387 19.749 4.97731C19.7437 4.52074 19.5601 4.08436 19.2374 3.76128L17.2374 1.76128C17.0749 1.59876 16.882 1.46984 16.6697 1.38189C16.4573 1.29393 16.2298 1.24866 15.9999 1.24866C15.7701 1.24866 15.5425 1.29393 15.3302 1.38189C15.1179 1.46984 14.9249 1.59876 14.7624 1.76128L6.76243 9.76128C6.59991 9.92379 6.47099 10.1167 6.38303 10.329C6.29508 10.5414 6.24981 10.769 6.24981 10.9988C6.24981 11.2286 6.29508 11.4562 6.38303 11.6685C6.47099 11.8809 6.59991 12.0738 6.76243 12.2363L8.76243 14.2363C9.08551 14.5589 9.52189 14.7425 9.97846 14.7479C10.435 14.7533 10.8756 14.58 11.2062 14.265L12.4399 15.5L4.09118 23.8488C3.59692 24.3958 3.33168 25.1118 3.35028 25.8488C3.36888 26.5858 3.6699 27.2875 4.19112 27.8089C4.71235 28.3303 5.41395 28.6315 6.15095 28.6503C6.88795 28.6691 7.60402 28.4041 8.15118 27.91L16.4999 19.5613L17.7337 20.795C17.4187 21.1256 17.2454 21.5662 17.2508 22.0228C17.2562 22.4793 17.4398 22.9157 17.7624 23.2388L19.7624 25.2388C19.9249 25.4013 20.1179 25.5302 20.3302 25.6182C20.5425 25.7061 20.7701 25.7514 20.9999 25.7514C21.2298 25.7514 21.4573 25.7061 21.6697 25.6182C21.882 25.5302 22.0749 25.4013 22.2374 25.2388L30.2374 17.2388C30.4002 17.0763 30.5294 16.8834 30.6176 16.671C30.7057 16.4586 30.7512 16.2309 30.7513 16.0009C30.7514 15.7709 30.7062 15.5432 30.6182 15.3307C30.5303 15.1182 30.4013 14.9251 30.2387 14.7625ZM18.7937 19.7325L12.2674 13.2075L18.2074 7.26753L24.7324 13.7925L18.7937 19.7325ZM9.82368 13.1763L7.82368 11.1763C7.80044 11.1531 7.782 11.1255 7.76942 11.0951C7.75684 11.0648 7.75036 11.0323 7.75036 10.9994C7.75036 10.9666 7.75684 10.934 7.76942 10.9037C7.782 10.8733 7.80044 10.8458 7.82368 10.8225L15.8237 2.82253C15.8469 2.79929 15.8745 2.78085 15.9048 2.76827C15.9352 2.75569 15.9677 2.74921 16.0006 2.74921C16.0334 2.74921 16.0659 2.75569 16.0963 2.76827C16.1266 2.78085 16.1542 2.79929 16.1774 2.82253L18.1774 4.82253C18.2007 4.84575 18.2191 4.87332 18.2317 4.90367C18.2443 4.93402 18.2508 4.96655 18.2508 4.99941C18.2508 5.03226 18.2443 5.06479 18.2317 5.09514C18.2191 5.12549 18.2007 5.15306 18.1774 5.17628L10.1774 13.1763C10.1542 13.1995 10.1266 13.218 10.0963 13.2305C10.0659 13.2431 10.0334 13.2496 10.0006 13.2496C9.9677 13.2496 9.93517 13.2431 9.90482 13.2305C9.87447 13.218 9.8469 13.1995 9.82368 13.1763ZM7.09118 26.85C6.82856 27.079 6.48882 27.1997 6.14061 27.1878C5.7924 27.1759 5.4617 27.0322 5.21534 26.7859C4.96897 26.5395 4.82532 26.2088 4.81341 25.8606C4.8015 25.5124 4.92223 25.1727 5.15118 24.91L13.4999 16.5613L15.4399 18.5L7.09118 26.85ZM29.1774 16.1775L21.1774 24.1775C21.1542 24.2008 21.1266 24.2192 21.0963 24.2318C21.0659 24.2444 21.0334 24.2509 21.0006 24.2509C20.9677 24.2509 20.9352 24.2444 20.9048 24.2318C20.8745 24.2192 20.8469 24.2008 20.8237 24.1775L18.8237 22.1775C18.8004 22.1543 18.782 22.1267 18.7694 22.0964C18.7568 22.066 18.7504 22.0335 18.7504 22.0007C18.7504 21.9678 18.7568 21.9353 18.7694 21.9049C18.782 21.8746 18.8004 21.847 18.8237 21.8238L26.8237 13.8238C26.8469 13.8005 26.8745 13.7821 26.9048 13.7695C26.9352 13.7569 26.9677 13.7505 27.0006 13.7505C27.0334 13.7505 27.0659 13.7569 27.0963 13.7695C27.1266 13.7821 27.1542 13.8005 27.1774 13.8238L29.1774 15.8238C29.2007 15.847 29.2191 15.8746 29.2317 15.9049C29.2443 15.9353 29.2508 15.9678 29.2508 16.0007C29.2508 16.0335 29.2443 16.066 29.2317 16.0964C29.2191 16.1267 29.2007 16.1543 29.1774 16.1775Z" fill="#1E3A8A"/>
</svg>
