<svg width="102" height="24" viewBox="0 0 102 24" fill="none" xmlns="http://www.w3.org/2000/svg">
<g clip-path="url(#clip0_663_4431)">
<path d="M13.4924 0.798096L16.12 2.99079L13.8492 4.88572C13.6425 5.05821 13.3423 5.05821 13.1356 4.88572L10.8647 2.99079L13.4924 0.798096Z" fill="#514E4E"/>
<path fill-rule="evenodd" clip-rule="evenodd" d="M13.1354 7.1355C13.3421 7.30802 13.6423 7.30802 13.849 7.1355L17.4678 4.11572L19.5493 5.8527L14.9195 9.71617C14.0927 10.4061 12.8917 10.4061 12.0649 9.71617L7.43506 5.8527L9.51658 4.11572L13.1354 7.1355Z" fill="#514E4E"/>
<path d="M13.4924 23.1237L10.8647 20.931L13.1356 19.0361C13.3423 18.8636 13.6425 18.8636 13.8492 19.0361L16.12 20.931L13.4924 23.1237Z" fill="#514E4E"/>
<path fill-rule="evenodd" clip-rule="evenodd" d="M13.849 16.7863C13.6423 16.6139 13.3421 16.6139 13.1354 16.7863L9.51658 19.8062L7.43506 18.0692L12.0649 14.2057C12.8917 13.5158 14.0927 13.5158 14.9195 14.2057L19.5493 18.0692L17.4678 19.8062L13.849 16.7863Z" fill="#514E4E"/>
<path d="M26.8692 11.9608L24.2416 9.76807L22.1278 11.532C21.8604 11.7552 21.8604 12.1664 22.1278 12.3895L24.2416 14.1535L26.8692 11.9608Z" fill="#514E4E"/>
<path fill-rule="evenodd" clip-rule="evenodd" d="M19.4321 12.3896C19.1647 12.1664 19.1647 11.7552 19.4321 11.5321L22.8939 8.64324L20.8124 6.90625L16.8105 10.2457C15.7409 11.1383 15.7409 12.7833 16.8105 13.6759L20.8124 17.0154L22.8939 15.2784L19.4321 12.3896Z" fill="#514E4E"/>
<path d="M0.115234 11.961L2.74286 14.1537L4.85666 12.3898C5.12406 12.1666 5.12406 11.7554 4.85666 11.5323L2.74286 9.76831L0.115234 11.961Z" fill="#514E4E"/>
<path fill-rule="evenodd" clip-rule="evenodd" d="M7.5526 11.5323C7.82003 11.7554 7.82003 12.1667 7.5526 12.3898L4.09082 15.2786L6.17231 17.0156L10.1742 13.6762C11.2438 12.7836 11.2438 11.1385 10.1742 10.246L6.17231 6.90649L4.09082 8.64348L7.5526 11.5323Z" fill="#514E4E"/>
<path d="M40.9728 19.2559H34.9141V5.04565H40.5937C41.6342 5.04565 42.5037 5.20007 43.2023 5.50891C43.9008 5.82147 44.4266 6.25124 44.7796 6.79821C45.1326 7.34519 45.3091 7.97403 45.3091 8.68472C45.3091 9.23914 45.1958 9.72658 44.9691 10.147C44.7425 10.5675 44.4378 10.9098 44.055 11.174C43.6686 11.4419 43.2283 11.6298 42.7341 11.7377V11.8829C43.2729 11.9089 43.7819 12.0615 44.2613 12.3405C44.7369 12.6196 45.1215 13.0122 45.415 13.5182C45.7123 14.0243 45.8609 14.627 45.8609 15.3266C45.8609 16.0782 45.6752 16.7498 45.3036 17.3415C44.932 17.9368 44.3839 18.4057 43.6593 18.748C42.9347 19.0866 42.0392 19.2559 40.9728 19.2559ZM37.9072 13.0159V16.8057H40.3652C41.1938 16.8057 41.8014 16.6438 42.1878 16.3201C42.5706 15.9926 42.7619 15.5629 42.7619 15.0308C42.7619 14.6364 42.669 14.2884 42.4832 13.9871C42.2937 13.6857 42.0243 13.4475 41.675 13.2726C41.3258 13.1015 40.9114 13.0159 40.4321 13.0159H37.9072ZM37.9072 7.47356V10.9954H40.1367C40.5491 10.9954 40.9152 10.9229 41.2347 10.7777C41.5543 10.6289 41.807 10.4205 41.9928 10.1526C42.1748 9.881 42.2659 9.55728 42.2659 9.18147C42.2659 8.67542 42.0875 8.26426 41.7308 7.94798C41.3703 7.6317 40.8576 7.47356 40.1924 7.47356H37.9072ZM53.9373 14.7238V8.58984H56.8803V19.2559H54.0488V17.3191H53.9373C53.6958 17.9368 53.2982 18.4373 52.7446 18.8205C52.1946 19.2075 51.5183 19.3973 50.7157 19.3898C50.006 19.3898 49.3799 19.2298 48.8373 18.9098C48.2948 18.5861 47.8712 18.1266 47.5665 17.5312C47.2655 16.9322 47.115 16.2159 47.115 15.3824V8.58984H50.058V14.8689C50.058 15.4903 50.2271 15.9852 50.5652 16.3536C50.9034 16.7182 51.3511 16.8968 51.9085 16.8894C52.2652 16.8894 52.5959 16.8094 52.9006 16.6494C53.2053 16.4857 53.4543 16.2419 53.6475 15.9182C53.8407 15.5945 53.9373 15.1964 53.9373 14.7238ZM64.6613 19.4289C64.089 19.4289 63.6041 19.3322 63.2065 19.1387C62.8052 18.9489 62.4801 18.7089 62.2311 18.4187C61.9784 18.1322 61.7815 17.8419 61.6403 17.548H61.5121V19.2559H58.6137V5.04565H61.5567V10.3926H61.6403C61.7741 10.1024 61.9654 9.80658 62.2144 9.50519C62.4634 9.20751 62.7866 8.95821 63.1842 8.75728C63.5855 8.55635 64.0816 8.45589 64.6724 8.45589C65.4527 8.45589 66.1681 8.65868 66.8183 9.06426C67.4686 9.46612 67.9907 10.0745 68.3846 10.8894C68.7784 11.7043 68.9754 12.7219 68.9754 13.9424C68.9754 15.1257 68.7859 16.1266 68.4069 16.9452C68.0241 17.7601 67.5076 18.3777 66.8573 18.7982C66.2071 19.2187 65.475 19.4289 64.6613 19.4289ZM63.7305 17.0791C64.2135 17.0791 64.6185 16.947 64.9455 16.6829C65.2762 16.415 65.5289 16.0429 65.7036 15.5666C65.8745 15.094 65.96 14.5489 65.96 13.9312C65.96 13.3173 65.8745 12.7759 65.7036 12.307C65.5364 11.8382 65.2874 11.4717 64.9567 11.2075C64.626 10.9396 64.2172 10.8057 63.7305 10.8057C63.2548 10.8057 62.8498 10.934 62.5154 11.1908C62.1809 11.4475 61.9264 11.8103 61.7518 12.2791C61.5771 12.7443 61.4898 13.295 61.4898 13.9312C61.4898 14.5638 61.579 15.1145 61.7573 15.5833C61.9357 16.0559 62.1921 16.4224 62.5265 16.6829C62.8572 16.947 63.2585 17.0791 63.7305 17.0791ZM73.217 23.241H70.2741V8.58984H73.1668V10.3926H73.3006C73.4344 10.1024 73.6258 9.80658 73.8747 9.50519C74.12 9.20751 74.4432 8.95821 74.8446 8.75728C75.2459 8.55635 75.7419 8.45589 76.3327 8.45589C77.1131 8.45589 77.8284 8.65868 78.4787 9.06426C79.1289 9.46612 79.651 10.0745 80.0449 10.8894C80.4388 11.7043 80.6357 12.7219 80.6357 13.9424C80.6357 15.1257 80.4462 16.1266 80.0672 16.9452C79.6844 17.7601 79.1679 18.3777 78.5177 18.7982C77.8674 19.2187 77.1354 19.4289 76.3216 19.4289C75.7494 19.4289 75.2644 19.3322 74.8668 19.1387C74.4655 18.9489 74.1385 18.7089 73.8859 18.4187C73.6369 18.1322 73.4418 17.8419 73.3006 17.548H73.217V23.241ZM75.3908 17.0791C75.8701 17.0791 76.2752 16.947 76.6059 16.6829C76.9366 16.415 77.1874 16.0429 77.3583 15.5666C77.5293 15.094 77.6147 14.5489 77.6147 13.9312C77.6147 13.3173 77.5311 12.7759 77.3639 12.307C77.1967 11.8382 76.9477 11.4717 76.617 11.2075C76.2863 10.9396 75.8776 10.8057 75.3908 10.8057C74.9114 10.8057 74.5064 10.934 74.1757 11.1908C73.8413 11.4475 73.5867 11.8103 73.4121 12.2791C73.2374 12.7443 73.1501 13.295 73.1501 13.9312C73.1501 14.5638 73.2393 15.1145 73.4177 15.5833C73.596 16.0559 73.8506 16.4224 74.1813 16.6829C74.5157 16.947 74.9189 17.0791 75.3908 17.0791ZM90.7744 11.6373L88.0767 11.7991C88.0061 11.4605 87.8184 11.1684 87.5137 10.9229C87.209 10.6773 86.8003 10.5545 86.2875 10.5545C85.8305 10.5545 85.4477 10.6512 85.1393 10.8447C84.8309 11.0345 84.6767 11.2875 84.6767 11.6038C84.6767 11.8605 84.777 12.0782 84.9777 12.2568C85.1746 12.4391 85.5183 12.5824 86.0088 12.6866L87.9429 13.0661C88.9796 13.2745 89.7507 13.615 90.256 14.0875C90.7651 14.5564 91.0196 15.1759 91.0196 15.9461C91.0196 16.6531 90.8171 17.2689 90.4121 17.7936C90.0033 18.3182 89.4441 18.7275 88.7344 19.0215C88.0209 19.3191 87.2053 19.468 86.2875 19.468C84.8755 19.468 83.7514 19.1722 82.9154 18.5805C82.083 17.9889 81.5962 17.187 81.455 16.175L84.3423 16.0243C84.4389 16.4559 84.6544 16.7833 84.9888 17.0066C85.327 17.2261 85.7599 17.3359 86.2875 17.3359C86.8003 17.3359 87.2165 17.2354 87.536 17.0345C87.8593 16.8298 88.0209 16.5712 88.0209 16.2587C88.0209 15.734 87.5639 15.3787 86.6498 15.1926L84.8105 14.8131C83.7737 14.601 83.0008 14.2401 82.4918 13.7303C81.9864 13.2243 81.7337 12.5731 81.7337 11.7768C81.7337 11.0922 81.9214 10.5005 82.2967 10.0019C82.6683 9.50705 83.1922 9.12565 83.8685 8.85775C84.5448 8.58984 85.3381 8.45589 86.2485 8.45589C87.5936 8.45589 88.6526 8.74054 89.4255 9.30984C90.1947 9.87914 90.6443 10.655 90.7744 11.6373ZM95.278 19.4568C94.6054 19.4568 93.9997 19.3377 93.4609 19.0996C92.9259 18.8615 92.506 18.5061 92.2013 18.0336C91.8966 17.5647 91.7442 16.9805 91.7442 16.281C91.7442 15.6819 91.852 15.1833 92.0675 14.7852C92.283 14.3908 92.5784 14.0689 92.9537 13.8196C93.329 13.5703 93.7545 13.3824 94.2301 13.2559C94.7058 13.1294 95.2111 13.0401 95.7462 12.988C96.3593 12.9322 96.8535 12.8745 97.2288 12.815C97.6041 12.7591 97.8791 12.6717 98.0537 12.5526C98.2284 12.4373 98.3157 12.268 98.3157 12.0447V11.9945C98.3157 11.5591 98.1782 11.2205 97.9032 10.9787C97.6246 10.7368 97.2344 10.6159 96.7328 10.6159C96.2088 10.6159 95.7889 10.7312 95.4731 10.9619C95.1572 11.1926 94.9491 11.4866 94.8488 11.8438L92.1177 11.6261C92.2552 10.975 92.5264 10.4131 92.9314 9.94054C93.3402 9.46798 93.866 9.10333 94.5088 8.84659C95.1554 8.58612 95.9041 8.45589 96.755 8.45589C97.3459 8.45589 97.9107 8.52658 98.4495 8.66798C98.9883 8.80938 99.4695 9.02333 99.8931 9.30984C100.317 9.60007 100.651 9.97403 100.896 10.4317C101.145 10.8894 101.27 11.4326 101.27 12.0615V19.2559H98.4606V17.7657H98.3826C98.2117 18.1043 97.9831 18.3982 97.697 18.6475C97.4109 18.9005 97.0672 19.0977 96.6659 19.2391C96.2683 19.3843 95.8056 19.4568 95.278 19.4568ZM96.1252 17.414C96.5562 17.414 96.939 17.3266 97.2734 17.1517C97.6078 16.9768 97.8679 16.7424 98.0537 16.4484C98.2395 16.1508 98.3324 15.8177 98.3324 15.4494V14.3164C98.247 14.3722 98.1225 14.4261 97.959 14.4782C97.7955 14.5266 97.6153 14.5712 97.4183 14.6122C97.2214 14.6494 97.0244 14.6829 96.8275 14.7126C96.6306 14.7387 96.4541 14.7647 96.298 14.7908C95.9487 14.8429 95.644 14.9247 95.3839 15.0364C95.1238 15.148 94.9213 15.2968 94.7764 15.4829C94.6352 15.6726 94.5646 15.9071 94.5646 16.1861C94.5646 16.5843 94.7095 16.8894 94.9993 17.1015C95.2929 17.3098 95.6682 17.414 96.1252 17.414Z" fill="#4A4A4A"/>
</g>
<defs>
<clipPath id="clip0_663_4431">
<rect width="102" height="24" fill="white"/>
</clipPath>
</defs>
</svg>
