<svg width="80" height="80" viewBox="0 0 80 80" fill="none" xmlns="http://www.w3.org/2000/svg">
<path d="M73.3332 74.3334C73.8855 74.3334 74.3332 73.8857 74.3332 73.3334C74.3332 72.7811 73.8855 72.3334 73.3332 72.3334V73.3334V74.3334ZM6.6665 72.3334C6.11422 72.3334 5.6665 72.7811 5.6665 73.3334C5.6665 73.8857 6.11422 74.3334 6.6665 74.3334V73.3334V72.3334ZM54.7138 8.61938L54.0067 9.32649L54.0067 9.3265L54.7138 8.61938ZM25.2858 8.61938L25.9929 9.32649L25.9929 9.32648L25.2858 8.61938ZM68.8762 19.6296L68.0447 20.1851L68.0447 20.1852L68.8762 19.6296ZM67.0368 17.7903L66.4812 18.6217L66.4813 18.6218L67.0368 17.7903ZM11.1234 19.6296L10.2919 19.074L10.2919 19.074L11.1234 19.6296ZM12.9627 17.7903L12.4071 16.9588L12.4071 16.9588L12.9627 17.7903ZM38.9998 73.3334C38.9998 73.8857 39.4476 74.3334 39.9998 74.3334C40.5521 74.3334 40.9998 73.8857 40.9998 73.3334H39.9998H38.9998ZM40.9998 63.3334C40.9998 62.7811 40.5521 62.3334 39.9998 62.3334C39.4476 62.3334 38.9998 62.7811 38.9998 63.3334H39.9998H40.9998ZM33.3332 39.0001C32.7809 39.0001 32.3332 39.4478 32.3332 40.0001C32.3332 40.5524 32.7809 41.0001 33.3332 41.0001V40.0001V39.0001ZM46.6665 41.0001C47.2188 41.0001 47.6665 40.5524 47.6665 40.0001C47.6665 39.4478 47.2188 39.0001 46.6665 39.0001V40.0001V41.0001ZM18.3332 35.6667C17.7809 35.6667 17.3332 36.1145 17.3332 36.6667C17.3332 37.219 17.7809 37.6667 18.3332 37.6667V36.6667V35.6667ZM23.3332 37.6667C23.8855 37.6667 24.3332 37.219 24.3332 36.6667C24.3332 36.1145 23.8855 35.6667 23.3332 35.6667V36.6667V37.6667ZM18.3332 45.6667C17.7809 45.6667 17.3332 46.1145 17.3332 46.6667C17.3332 47.219 17.7809 47.6667 18.3332 47.6667V46.6667V45.6667ZM23.3332 47.6667C23.8855 47.6667 24.3332 47.219 24.3332 46.6667C24.3332 46.1145 23.8855 45.6667 23.3332 45.6667V46.6667V47.6667ZM56.6665 35.6667C56.1142 35.6667 55.6665 36.1145 55.6665 36.6667C55.6665 37.219 56.1142 37.6667 56.6665 37.6667V36.6667V35.6667ZM61.6665 37.6667C62.2188 37.6667 62.6665 37.219 62.6665 36.6667C62.6665 36.1145 62.2188 35.6667 61.6665 35.6667V36.6667V37.6667ZM56.6665 45.6667C56.1142 45.6667 55.6665 46.1145 55.6665 46.6667C55.6665 47.219 56.1142 47.6667 56.6665 47.6667V46.6667V45.6667ZM61.6665 47.6667C62.2188 47.6667 62.6665 47.219 62.6665 46.6667C62.6665 46.1145 62.2188 45.6667 61.6665 45.6667V46.6667V47.6667ZM18.3332 25.6667C17.7809 25.6667 17.3332 26.1145 17.3332 26.6667C17.3332 27.219 17.7809 27.6667 18.3332 27.6667V26.6667V25.6667ZM23.3332 27.6667C23.8855 27.6667 24.3332 27.219 24.3332 26.6667C24.3332 26.1145 23.8855 25.6667 23.3332 25.6667V26.6667V27.6667ZM56.6665 25.6667C56.1142 25.6667 55.6665 26.1145 55.6665 26.6667C55.6665 27.219 56.1142 27.6667 56.6665 27.6667V26.6667V25.6667ZM61.6665 27.6667C62.2188 27.6667 62.6665 27.219 62.6665 26.6667C62.6665 26.1145 62.2188 25.6667 61.6665 25.6667V26.6667V27.6667ZM33.3332 49.0001C32.7809 49.0001 32.3332 49.4478 32.3332 50.0001C32.3332 50.5524 32.7809 51.0001 33.3332 51.0001V50.0001V49.0001ZM46.6665 51.0001C47.2188 51.0001 47.6665 50.5524 47.6665 50.0001C47.6665 49.4478 47.2188 49.0001 46.6665 49.0001V50.0001V51.0001ZM38.9998 30.0001C38.9998 30.5524 39.4476 31.0001 39.9998 31.0001C40.5521 31.0001 40.9998 30.5524 40.9998 30.0001H39.9998H38.9998ZM40.9998 16.6667C40.9998 16.1145 40.5521 15.6667 39.9998 15.6667C39.4476 15.6667 38.9998 16.1145 38.9998 16.6667H39.9998H40.9998ZM46.6665 24.3334C47.2188 24.3334 47.6665 23.8857 47.6665 23.3334C47.6665 22.7811 47.2188 22.3334 46.6665 22.3334V23.3334V24.3334ZM33.3332 22.3334C32.7809 22.3334 32.3332 22.7811 32.3332 23.3334C32.3332 23.8857 32.7809 24.3334 33.3332 24.3334V23.3334V22.3334ZM73.3332 73.3334V72.3334H6.6665V73.3334V74.3334H73.3332V73.3334ZM56.6665 73.3334H57.6665V20.0001H56.6665H55.6665V73.3334H56.6665ZM56.6665 20.0001H57.6665C57.6665 16.8857 57.6686 14.4492 57.4135 12.5517C57.1545 10.6254 56.614 9.10533 55.4209 7.91226L54.7138 8.61938L54.0067 9.3265C54.7663 10.086 55.2022 11.1136 55.4313 12.8182C55.6644 14.5515 55.6665 16.8291 55.6665 20.0001H56.6665ZM54.7138 8.61938L55.4209 7.91227C54.2278 6.71919 52.7078 6.17873 50.7815 5.91974C48.884 5.66462 46.4476 5.66675 43.3332 5.66675V6.66675V7.66675C46.5041 7.66675 48.7817 7.66887 50.515 7.90191C52.2195 8.13108 53.2472 8.56694 54.0067 9.32649L54.7138 8.61938ZM43.3332 6.66675V5.66675H36.6665V6.66675V7.66675H43.3332V6.66675ZM36.6665 6.66675V5.66675C33.5521 5.66675 31.1157 5.66462 29.2181 5.91974C27.2918 6.17873 25.7718 6.71919 24.5787 7.91228L25.2858 8.61938L25.9929 9.32648C26.7524 8.56694 27.7801 8.13108 29.4846 7.90191C31.2179 7.66887 33.4955 7.66675 36.6665 7.66675V6.66675ZM25.2858 8.61938L24.5787 7.91227C23.3856 9.10534 22.8452 10.6254 22.5862 12.5517C22.331 14.4492 22.3332 16.8856 22.3332 20.0001H23.3332H24.3332C24.3332 16.8291 24.3353 14.5515 24.5683 12.8182C24.7975 11.1136 25.2334 10.086 25.9929 9.32649L25.2858 8.61938ZM23.3332 20.0001H22.3332V73.3334H23.3332H24.3332V20.0001H23.3332ZM69.9998 73.3334H70.9998V28.3334H69.9998H68.9998V73.3334H69.9998ZM69.9998 28.3334H70.9998C70.9998 26.0135 71.001 24.1982 70.8542 22.7553C70.7057 21.2956 70.3976 20.1065 69.7076 19.074L68.8762 19.6296L68.0447 20.1852C68.4785 20.8343 68.7321 21.6562 68.8645 22.9577C68.9986 24.2759 68.9998 25.9718 68.9998 28.3334H69.9998ZM68.8762 19.6296L69.7077 19.0741C69.1484 18.2369 68.4296 17.5182 67.5924 16.9588L67.0368 17.7903L66.4813 18.6218C67.1001 19.0352 67.6313 19.5664 68.0447 20.1851L68.8762 19.6296ZM67.0368 17.7903L67.5924 16.9588C66.5601 16.269 65.3709 15.9608 63.9113 15.8123C62.4684 15.6655 60.6532 15.6667 58.3332 15.6667V16.6667V17.6667C60.6948 17.6667 62.3907 17.668 63.7089 17.8021C65.0104 17.9345 65.8323 18.1881 66.4812 18.6217L67.0368 17.7903ZM9.99984 73.3334H10.9998V28.3334H9.99984H8.99984V73.3334H9.99984ZM9.99984 28.3334H10.9998C10.9998 25.9718 11.001 24.2759 11.1351 22.9577C11.2675 21.6562 11.5212 20.8342 11.9548 20.1852L11.1234 19.6296L10.2919 19.074C9.60205 20.1065 9.2939 21.2957 9.14541 22.7553C8.99863 24.1982 8.99984 26.0135 8.99984 28.3334H9.99984ZM11.1234 19.6296L11.9548 20.1852C12.3683 19.5664 12.8995 19.0352 13.5183 18.6217L12.9627 17.7903L12.4071 16.9588C11.57 17.5182 10.8513 18.2369 10.2919 19.074L11.1234 19.6296ZM12.9627 17.7903L13.5183 18.6218C14.1673 18.1881 14.9893 17.9345 16.2908 17.8021C17.609 17.668 19.3049 17.6667 21.6665 17.6667V16.6667V15.6667C19.3465 15.6667 17.5313 15.6655 16.0884 15.8123C14.6287 15.9608 13.4396 16.269 12.4071 16.9588L12.9627 17.7903ZM39.9998 73.3334H40.9998V63.3334H39.9998H38.9998V73.3334H39.9998ZM33.3332 40.0001V41.0001H46.6665V40.0001V39.0001H33.3332V40.0001ZM18.3332 36.6667V37.6667H23.3332V36.6667V35.6667H18.3332V36.6667ZM18.3332 46.6667V47.6667H23.3332V46.6667V45.6667H18.3332V46.6667ZM56.6665 36.6667V37.6667H61.6665V36.6667V35.6667H56.6665V36.6667ZM56.6665 46.6667V47.6667H61.6665V46.6667V45.6667H56.6665V46.6667ZM18.3332 26.6667V27.6667H23.3332V26.6667V25.6667H18.3332V26.6667ZM56.6665 26.6667V27.6667H61.6665V26.6667V25.6667H56.6665V26.6667ZM33.3332 50.0001V51.0001H46.6665V50.0001V49.0001H33.3332V50.0001ZM39.9998 30.0001H40.9998V16.6667H39.9998H38.9998V30.0001H39.9998ZM46.6665 23.3334V22.3334H33.3332V23.3334V24.3334H46.6665V23.3334Z" fill="#705200"/>
</svg>
