<svg width="95" height="32" viewBox="0 0 95 32" fill="none" xmlns="http://www.w3.org/2000/svg">
<path d="M0 16L9.33333 12.4V28H0V16Z" fill="#D6B980"/>
<path d="M12.6667 7.6L22 4V28H12.6667V7.6Z" fill="#D6B980"/>
<path d="M31.55 7.925V23.725H39.5V26H29.1V7.925H31.55ZM46.2924 26.3C42.6924 26.3 40.2174 23.7 40.2174 19.9C40.2174 16.075 42.6424 13.425 46.1924 13.425C49.6674 13.425 51.9424 15.825 51.9424 19.45V20.325L42.4924 20.35C42.6674 22.925 44.0174 24.35 46.3424 24.35C48.1674 24.35 49.3674 23.6 49.7674 22.2H51.9674C51.3674 24.825 49.3174 26.3 46.2924 26.3ZM46.1924 15.4C44.1424 15.4 42.8424 16.625 42.5424 18.775H49.5924C49.5924 16.75 48.2674 15.4 46.1924 15.4ZM54.8533 26H52.1533L56.4283 19.95L52.1783 13.775H54.9033L58.0033 18.325L61.0283 13.775H63.7033L59.4533 19.95L63.6283 26H60.9033L57.8533 21.525L54.8533 26ZM66.3139 10.875C65.4639 10.875 64.7639 10.175 64.7639 9.325C64.7639 8.45 65.4639 7.775 66.3139 7.775C67.1639 7.775 67.8639 8.45 67.8639 9.325C67.8639 10.175 67.1639 10.875 66.3139 10.875ZM65.1639 26V13.775H67.5139V26H65.1639ZM69.6256 19.9C69.6256 16.075 72.0506 13.425 75.6256 13.425C78.7006 13.425 80.8506 15.175 81.2756 17.9H78.9256C78.5256 16.35 77.2756 15.525 75.7006 15.525C73.4756 15.525 71.9506 17.225 71.9506 19.875C71.9506 22.5 73.3756 24.2 75.6006 24.2C77.2756 24.2 78.5256 23.325 78.9506 21.875H81.3006C80.8256 24.525 78.5506 26.3 75.6006 26.3C72.0006 26.3 69.6256 23.75 69.6256 19.9ZM86.8551 26.3C84.2301 26.3 82.6801 24.825 82.6801 22.6C82.6801 20.35 84.3551 18.95 87.2301 18.725L91.0801 18.425V18.075C91.0801 16.025 89.8551 15.3 88.2051 15.3C86.2301 15.3 85.1051 16.175 85.1051 17.65H83.0551C83.0551 15.1 85.1551 13.425 88.3051 13.425C91.3301 13.425 93.3801 15.025 93.3801 18.325V26H91.3801L91.1301 24.025C90.5051 25.425 88.8301 26.3 86.8551 26.3ZM87.5301 24.475C89.7551 24.475 91.1051 23.025 91.1051 20.725V20.075L87.9801 20.325C85.9051 20.525 85.0551 21.325 85.0551 22.525C85.0551 23.825 86.0051 24.475 87.5301 24.475Z" fill="white"/>
</svg>
