<svg width="20" height="20" viewBox="0 0 20 20" fill="none" xmlns="http://www.w3.org/2000/svg">
<path d="M19.2806 9.21996L10.2806 0.219966C10.1757 0.114957 10.042 0.0434315 9.89648 0.0144437C9.75092 -0.0145441 9.60002 0.00030937 9.46291 0.0571237C9.32579 0.113938 9.20861 0.210159 9.12621 0.333604C9.04381 0.457049 8.99988 0.602169 9 0.750591V4.50059H6.75C6.55109 4.50059 6.36032 4.57961 6.21967 4.72026C6.07902 4.86091 6 5.05168 6 5.25059V14.2506C6 14.4495 6.07902 14.6403 6.21967 14.7809C6.36032 14.9216 6.55109 15.0006 6.75 15.0006H9V18.7506C8.99988 18.899 9.04381 19.0441 9.12621 19.1676C9.20861 19.291 9.32579 19.3872 9.46291 19.4441C9.60002 19.5009 9.75092 19.5157 9.89648 19.4867C10.042 19.4577 10.1757 19.3862 10.2806 19.2812L19.2806 10.2812C19.3504 10.2116 19.4057 10.1288 19.4434 10.0378C19.4812 9.94675 19.5006 9.84915 19.5006 9.75059C19.5006 9.65203 19.4812 9.55443 19.4434 9.46338C19.4057 9.37234 19.3504 9.28962 19.2806 9.21996ZM10.5 16.9403V14.2506C10.5 14.0517 10.421 13.8609 10.2803 13.7203C10.1397 13.5796 9.94891 13.5006 9.75 13.5006H7.5V6.00059H9.75C9.94891 6.00059 10.1397 5.92157 10.2803 5.78092C10.421 5.64027 10.5 5.4495 10.5 5.25059V2.5609L17.6897 9.75059L10.5 16.9403ZM1.5 5.25059V14.2506C1.5 14.4495 1.42098 14.6403 1.28033 14.7809C1.13968 14.9216 0.948912 15.0006 0.75 15.0006C0.551088 15.0006 0.360322 14.9216 0.21967 14.7809C0.0790178 14.6403 0 14.4495 0 14.2506V5.25059C0 5.05168 0.0790178 4.86091 0.21967 4.72026C0.360322 4.57961 0.551088 4.50059 0.75 4.50059C0.948912 4.50059 1.13968 4.57961 1.28033 4.72026C1.42098 4.86091 1.5 5.05168 1.5 5.25059ZM4.5 5.25059V14.2506C4.5 14.4495 4.42098 14.6403 4.28033 14.7809C4.13968 14.9216 3.94891 15.0006 3.75 15.0006C3.55109 15.0006 3.36032 14.9216 3.21967 14.7809C3.07902 14.6403 3 14.4495 3 14.2506V5.25059C3 5.05168 3.07902 4.86091 3.21967 4.72026C3.36032 4.57961 3.55109 4.50059 3.75 4.50059C3.94891 4.50059 4.13968 4.57961 4.28033 4.72026C4.42098 4.86091 4.5 5.05168 4.5 5.25059Z" fill="#D6B980"/>
</svg>
