<svg width="107" height="24" viewBox="0 0 107 24" fill="none" xmlns="http://www.w3.org/2000/svg">
<g clip-path="url(#clip0_663_4437)">
<path d="M0 19.4286L2.62153 14.8572H6.96911C9.82175 14.8572 12.2337 16.9773 12.6107 19.8163L13.0904 23.4286H7.39894L6.57851 21.5066C6.04038 20.246 4.80577 19.4286 3.43972 19.4286H0Z" fill="#514E4E"/>
<path d="M26.1808 19.4286L23.5592 14.8572H19.2116C16.359 14.8572 13.9471 16.9773 13.5701 19.8163L13.0903 23.4286H18.7818L19.6023 21.5066C20.1404 20.246 21.375 19.4286 22.7411 19.4286H26.1808Z" fill="#514E4E"/>
<path d="M2.62158 14.8572L10.8138 0.571533H13.0905L12.8646 6.01385C12.6698 10.709 8.96158 14.4913 4.2888 14.761L2.62158 14.8572Z" fill="#514E4E"/>
<path d="M23.5592 14.8572L15.367 0.571533H13.0903L13.3162 6.01385C13.511 10.709 17.2192 14.4913 21.892 14.761L23.5592 14.8572Z" fill="#514E4E"/>
<path d="M33.9438 19.7142V5.16563H37.7287L41.7184 14.9371H41.8835L45.8789 5.16563H49.6694V19.7142H46.6757V10.2399H46.5619L42.7941 19.6456H40.7736L37.04 10.2228H36.9205V19.7142H33.9438ZM56.3854 19.9313C55.2888 19.9313 54.3403 19.6952 53.5396 19.2228C52.739 18.7504 52.1225 18.0913 51.6899 17.2456C51.2574 16.4037 51.0411 15.4228 51.0411 14.3028C51.0411 13.1713 51.2574 12.1847 51.6899 11.3428C52.1225 10.4971 52.739 9.83801 53.5396 9.36563C54.3403 8.89325 55.2888 8.65706 56.3854 8.65706C57.4857 8.65706 58.4362 8.89325 59.2368 9.36563C60.0374 9.83801 60.654 10.4971 61.0866 11.3428C61.5191 12.1847 61.7354 13.1713 61.7354 14.3028C61.7354 15.4228 61.5191 16.4037 61.0866 17.2456C60.654 18.0913 60.0374 18.7504 59.2368 19.2228C58.4362 19.6952 57.4857 19.9313 56.3854 19.9313ZM56.4025 17.5656C56.9033 17.5656 57.3226 17.4247 57.6603 17.1428C57.9942 16.8571 58.2484 16.4666 58.4229 15.9713C58.5937 15.4799 58.6791 14.918 58.6791 14.2856C58.6791 13.6456 58.5937 13.0818 58.4229 12.5942C58.2484 12.1066 57.9942 11.7218 57.6603 11.4399C57.3226 11.1618 56.9033 11.0228 56.4025 11.0228C55.8978 11.0228 55.4748 11.1618 55.1333 11.4399C54.7918 11.7218 54.5357 12.1066 54.3649 12.5942C54.1942 13.0818 54.1088 13.6456 54.1088 14.2856C54.1088 14.918 54.1942 15.4799 54.3649 15.9713C54.5357 16.4666 54.7918 16.8571 55.1333 17.1428C55.4748 17.4247 55.8978 17.5656 56.4025 17.5656ZM62.2875 8.7942H68.8327V11.0799H62.2875V8.7942ZM63.7786 16.7542V6.19992H66.7837V16.3542C66.7837 16.7199 66.8634 16.9885 67.0228 17.1599C67.1859 17.3313 67.4459 17.4171 67.8025 17.4171C67.9201 17.4171 68.0491 17.4075 68.1895 17.3885C68.3337 17.3694 68.457 17.3466 68.5595 17.3199L69.0376 19.5885C68.7075 19.6837 68.3887 19.7542 68.0814 19.7999C67.7741 19.8456 67.4705 19.8685 67.1708 19.8685C66.0894 19.8685 65.2527 19.598 64.6608 19.0571C64.0727 18.5123 63.7786 17.7447 63.7786 16.7542ZM77.1138 15.0742V8.7942H80.1189V19.7142H77.2276V17.7313H77.1138C76.8672 18.3637 76.4612 18.8761 75.8958 19.2685C75.3305 19.6647 74.6399 19.859 73.8241 19.8513C73.0956 19.8513 72.4544 19.6875 71.9004 19.3599C71.3464 19.0285 70.9158 18.558 70.6084 17.9485C70.3011 17.3352 70.1474 16.6018 70.1474 15.7485V8.7942H73.1525V15.2228C73.1525 15.859 73.3252 16.3656 73.6704 16.7428C74.0119 17.1161 74.4692 17.299 75.0421 17.2913C75.4026 17.2913 75.7384 17.2094 76.0495 17.0456C76.3606 16.878 76.6148 16.6285 76.8121 16.2971C77.0132 15.9656 77.1138 15.558 77.1138 15.0742ZM85.9698 19.9085C85.0971 19.9085 84.2946 19.7523 83.5623 19.4399C82.8262 19.1275 82.238 18.6552 81.7979 18.0228C81.3577 17.3942 81.1377 16.5904 81.1377 15.6113V15.4456H84.194V15.6113C84.194 15.9961 84.268 16.3256 84.416 16.5999C84.564 16.8742 84.7707 17.0837 85.0364 17.2285C85.302 17.3771 85.6131 17.4513 85.9698 17.4513C86.3492 17.4513 86.6698 17.3694 86.9316 17.2056C87.1934 17.0418 87.3926 16.8018 87.5292 16.4856C87.6658 16.1694 87.7341 15.7809 87.7341 15.3199V5.16563H90.7563V15.3199C90.7563 16.2494 90.5628 17.059 90.1758 17.7485C89.785 18.4418 89.231 18.9752 88.5138 19.3485C87.7967 19.7218 86.9487 19.9085 85.9698 19.9085ZM95.5827 19.7142H92.5776V8.7942H95.5827V19.7142ZM94.0744 7.39992C93.6267 7.39992 93.2435 7.24944 92.9248 6.94849C92.6098 6.65134 92.4524 6.29134 92.4524 5.86849C92.4524 5.44563 92.6098 5.08563 92.9248 4.78849C93.2435 4.49134 93.6267 4.34277 94.0744 4.34277C94.5298 4.34277 94.9149 4.49134 95.2298 4.78849C95.5485 5.08563 95.7079 5.44563 95.7079 5.86849C95.7079 6.29134 95.5485 6.65134 95.2298 6.94849C94.9149 7.24944 94.5298 7.39992 94.0744 7.39992ZM100.443 19.9199C99.7564 19.9199 99.1399 19.798 98.5935 19.5542C98.0433 19.3104 97.6126 18.9466 97.3015 18.4628C96.9904 17.9828 96.8348 17.3847 96.8348 16.6685C96.8348 16.0552 96.9448 15.5447 97.1649 15.1371C97.3888 14.7332 97.6904 14.4037 98.0699 14.1485C98.4531 13.8932 98.8875 13.7009 99.3732 13.5713C99.8627 13.4418 100.379 13.3504 100.921 13.2971C101.551 13.2399 102.058 13.1809 102.441 13.1199C102.824 13.0628 103.105 12.9732 103.283 12.8513C103.462 12.7332 103.551 12.5599 103.551 12.3313V12.2799C103.551 11.8342 103.408 11.4875 103.124 11.2399C102.843 10.9923 102.447 10.8685 101.934 10.8685C101.396 10.8685 100.965 10.9866 100.642 11.2228C100.324 11.459 100.111 11.7599 100.005 12.1256L97.2161 11.9028C97.3603 11.2361 97.6392 10.6609 98.0528 10.1771C98.4664 9.69325 99.0033 9.31992 99.6635 9.05706C100.32 8.79039 101.083 8.65706 101.951 8.65706C102.555 8.65706 103.131 8.72944 103.682 8.8742C104.236 9.01896 104.727 9.23801 105.156 9.53134C105.588 9.82849 105.932 10.2113 106.186 10.6799C106.436 11.1485 106.562 11.7047 106.562 12.3485V19.7142H103.693V18.1885H103.619C103.441 18.5352 103.205 18.8361 102.913 19.0913C102.625 19.3504 102.276 19.5523 101.866 19.6971C101.456 19.8456 100.982 19.9199 100.443 19.9199ZM101.308 17.8285C101.752 17.8285 102.143 17.739 102.481 17.5599C102.822 17.3809 103.09 17.1409 103.283 16.8399C103.473 16.5352 103.568 16.1942 103.568 15.8171V14.6571C103.477 14.7142 103.348 14.7694 103.181 14.8228C103.018 14.8723 102.836 14.918 102.634 14.9599C102.433 14.998 102.232 15.0323 102.031 15.0628C101.83 15.0894 101.648 15.1161 101.485 15.1428C101.128 15.1961 100.817 15.2799 100.551 15.3942C100.286 15.5085 100.081 15.6609 99.9367 15.8513C99.7887 16.0456 99.7147 16.2856 99.7147 16.5713C99.7147 16.979 99.8646 17.2913 100.164 17.5085C100.46 17.7218 100.842 17.8285 101.308 17.8285Z" fill="#4A4A4A"/>
</g>
<defs>
<clipPath id="clip0_663_4437">
<rect width="107" height="24" fill="white"/>
</clipPath>
</defs>
</svg>
