<svg width="80" height="80" viewBox="0 0 80 80" fill="none" xmlns="http://www.w3.org/2000/svg">
<path d="M11.5481 11.5483L12.2552 12.2554L12.2552 12.2554L11.5481 11.5483ZM68.4515 11.5483L67.7444 12.2554L67.7444 12.2554L68.4515 11.5483ZM68.4515 68.4517L67.7444 67.7446L67.7444 67.7447L68.4515 68.4517ZM11.5481 68.4517L12.2552 67.7446L12.2552 67.7446L11.5481 68.4517ZM20.724 51.9771C20.3431 51.5772 19.7101 51.5617 19.3102 51.9426C18.9103 52.3235 18.8948 52.9565 19.2757 53.3564L19.9998 52.6667L20.724 51.9771ZM23.8094 56.6667L23.0852 57.3564C23.274 57.5546 23.5357 57.6667 23.8094 57.6667C24.083 57.6667 24.3448 57.5546 24.5335 57.3564L23.8094 56.6667ZM34.0573 47.3564C34.4382 46.9565 34.4228 46.3235 34.0228 45.9426C33.6229 45.5617 32.9899 45.5772 32.609 45.9771L33.3332 46.6667L34.0573 47.3564ZM20.724 28.6438C20.3431 28.2438 19.7101 28.2284 19.3102 28.6093C18.9103 28.9902 18.8948 29.6231 19.2757 30.0231L19.9998 29.3334L20.724 28.6438ZM23.8094 33.3334L23.0852 34.0231C23.274 34.2213 23.5357 34.3334 23.8094 34.3334C24.083 34.3334 24.3448 34.2213 24.5335 34.0231L23.8094 33.3334ZM34.0573 24.0231C34.4382 23.6231 34.4228 22.9902 34.0228 22.6093C33.6229 22.2284 32.9899 22.2438 32.609 22.6438L33.3332 23.3334L34.0573 24.0231ZM43.3332 29.0001C42.7809 29.0001 42.3332 29.4478 42.3332 30.0001C42.3332 30.5524 42.7809 31.0001 43.3332 31.0001V30.0001V29.0001ZM59.9998 31.0001C60.5521 31.0001 60.9998 30.5524 60.9998 30.0001C60.9998 29.4478 60.5521 29.0001 59.9998 29.0001V30.0001V31.0001ZM43.3332 52.3334C42.7809 52.3334 42.3332 52.7811 42.3332 53.3334C42.3332 53.8857 42.7809 54.3334 43.3332 54.3334V53.3334V52.3334ZM59.9998 54.3334C60.5521 54.3334 60.9998 53.8857 60.9998 53.3334C60.9998 52.7811 60.5521 52.3334 59.9998 52.3334V53.3334V54.3334ZM6.6665 40.0001H7.6665C7.6665 32.1151 7.66863 26.3019 8.26778 21.8455C8.86307 17.4178 10.0312 14.4794 12.2552 12.2554L11.5481 11.5483L10.841 10.8412C8.18341 13.4987 6.91072 16.9295 6.28562 21.579C5.66438 26.1996 5.6665 32.1716 5.6665 40.0001H6.6665ZM11.5481 11.5483L12.2552 12.2554C14.4792 10.0314 17.4175 8.86331 21.8452 8.26803C26.3017 7.66887 32.1148 7.66675 39.9998 7.66675V6.66675V5.66675C32.1714 5.66675 26.1994 5.66462 21.5787 6.28586C16.9293 6.91097 13.4985 8.18366 10.841 10.8412L11.5481 11.5483ZM39.9998 6.66675V7.66675C47.8848 7.66675 53.698 7.66887 58.1544 8.26803C62.5821 8.86331 65.5205 10.0314 67.7444 12.2554L68.4515 11.5483L69.1586 10.8412C66.5012 8.18365 63.0704 6.91096 58.4209 6.28586C53.8002 5.66462 47.8282 5.66675 39.9998 5.66675V6.66675ZM68.4515 11.5483L67.7444 12.2554C69.9685 14.4794 71.1366 17.4178 71.7319 21.8455C72.331 26.3019 72.3332 32.1151 72.3332 40.0001H73.3332H74.3332C74.3332 32.1716 74.3353 26.1996 73.714 21.579C73.0889 16.9295 71.8162 13.4987 69.1586 10.8412L68.4515 11.5483ZM73.3332 40.0001H72.3332C72.3332 47.885 72.331 53.6982 71.7319 58.1547C71.1366 62.5824 69.9685 65.5207 67.7444 67.7446L68.4515 68.4517L69.1586 69.1589C71.8162 66.5014 73.0889 63.0706 73.714 58.4212C74.3353 53.8005 74.3332 47.8285 74.3332 40.0001H73.3332ZM68.4515 68.4517L67.7444 67.7447C65.5205 69.9687 62.5821 71.1368 58.1544 71.7321C53.698 72.3313 47.8848 72.3334 39.9998 72.3334V73.3334V74.3334C47.8282 74.3334 53.8002 74.3355 58.4209 73.7143C63.0704 73.0892 66.5012 71.8165 69.1586 69.1588L68.4515 68.4517ZM39.9998 73.3334V72.3334C32.1148 72.3334 26.3017 72.3313 21.8452 71.7321C17.4175 71.1368 14.4792 69.9687 12.2552 67.7446L11.5481 68.4517L10.841 69.1588C13.4985 71.8165 16.9293 73.0892 21.5787 73.7143C26.1994 74.3355 32.1714 74.3334 39.9998 74.3334V73.3334ZM11.5481 68.4517L12.2552 67.7446C10.0312 65.5207 8.86307 62.5824 8.26778 58.1547C7.66863 53.6982 7.6665 47.885 7.6665 40.0001H6.6665H5.6665C5.6665 47.8285 5.66438 53.8005 6.28562 58.4212C6.91072 63.0706 8.18341 66.5014 10.841 69.1589L11.5481 68.4517ZM19.9998 52.6667L19.2757 53.3564L23.0852 57.3564L23.8094 56.6667L24.5335 55.9771L20.724 51.9771L19.9998 52.6667ZM23.8094 56.6667L24.5335 57.3564L34.0573 47.3564L33.3332 46.6667L32.609 45.9771L23.0852 55.9771L23.8094 56.6667ZM19.9998 29.3334L19.2757 30.0231L23.0852 34.0231L23.8094 33.3334L24.5335 32.6438L20.724 28.6438L19.9998 29.3334ZM23.8094 33.3334L24.5335 34.0231L34.0573 24.0231L33.3332 23.3334L32.609 22.6438L23.0852 32.6438L23.8094 33.3334ZM43.3332 30.0001V31.0001H59.9998V30.0001V29.0001H43.3332V30.0001ZM43.3332 53.3334V54.3334H59.9998V53.3334V52.3334H43.3332V53.3334Z" fill="#705200"/>
</svg>
