<svg width="94" height="24" viewBox="0 0 94 24" fill="none" xmlns="http://www.w3.org/2000/svg">
<g clip-path="url(#clip0_663_4435)">
<path d="M24.497 18.2858L17.6606 23.4287H2.84848L3.98788 20.5715L6.83636 18.2858H16.5212L18.2303 20.5715L22.7879 6.85725L25.6364 4.57153H28.4848L24.497 18.2858ZM24.497 3.42868L21.6485 5.71439H11.9636L10.2545 3.42868L5.69697 17.143L2.84848 19.4287H0L3.98788 5.71439L10.8242 0.571533H25.6364L24.497 3.42868ZM13.6727 8.0001H19.9394L16.5212 18.2858L14.8121 16.0001H8.54545L11.9636 5.71439L13.6727 8.0001Z" fill="#514E4E"/>
<path d="M39.3146 19.7142H36.2554V5.16563H41.9694C43.067 5.16563 44.0033 5.37515 44.778 5.7942C45.5566 6.21325 46.151 6.7942 46.5612 7.53706C46.9752 8.27992 47.1822 9.13515 47.1822 10.1028C47.1822 11.0666 46.9733 11.9161 46.5555 12.6513C46.1415 13.3904 45.5395 13.9656 44.7496 14.3771C43.9634 14.7923 43.012 14.9999 41.8954 14.9999H38.2493V12.5371H41.394C41.9865 12.5371 42.4765 12.4323 42.8639 12.2228C43.2475 12.0171 43.5361 11.7313 43.7298 11.3656C43.9197 10.9999 44.0146 10.579 44.0146 10.1028C44.0146 9.61515 43.9197 9.19039 43.7298 8.82849C43.5361 8.46658 43.2456 8.18658 42.8582 7.98849C42.467 7.78658 41.977 7.68563 41.3883 7.68563H39.3146V19.7142ZM51.5631 19.9199C50.8719 19.9199 50.2528 19.798 49.7059 19.5542C49.159 19.3104 48.7298 18.9466 48.4184 18.4628C48.107 17.9828 47.9513 17.3847 47.9513 16.6685C47.9513 16.0552 48.0614 15.5447 48.2817 15.1371C48.502 14.7332 48.8039 14.4037 49.1875 14.1485C49.5673 13.8932 50.0022 13.7009 50.4921 13.5713C50.9782 13.4418 51.4929 13.3504 52.036 13.2971C52.6664 13.2399 53.1735 13.1809 53.5571 13.1199C53.9407 13.0628 54.2217 12.9732 54.4002 12.8513C54.5787 12.7332 54.668 12.5599 54.668 12.3313V12.2799C54.668 11.8342 54.5256 11.4875 54.2407 11.2399C53.9597 10.9923 53.5628 10.8685 53.05 10.8685C52.5107 10.8685 52.0816 10.9866 51.7625 11.2228C51.4397 11.459 51.227 11.7599 51.1245 12.1256L48.3273 11.9028C48.4716 11.2361 48.7507 10.6609 49.1647 10.1771C49.5825 9.69325 50.1199 9.31992 50.7769 9.05706C51.434 8.79039 52.1974 8.65706 53.0671 8.65706C53.671 8.65706 54.2502 8.72944 54.8047 8.8742C55.3554 9.01896 55.8472 9.23801 56.2802 9.53134C56.7094 9.82849 57.0512 10.2113 57.3057 10.6799C57.5601 11.1485 57.6874 11.7047 57.6874 12.3485V19.7142H54.8104V18.1885H54.7363C54.5616 18.5352 54.3281 18.8361 54.0356 19.0913C53.7432 19.3504 53.3919 19.5523 52.9817 19.6971C52.5715 19.8456 52.0986 19.9199 51.5631 19.9199ZM52.4291 17.8285C52.8696 17.8285 53.2608 17.739 53.6026 17.5599C53.9407 17.3809 54.2065 17.1409 54.4002 16.8399C54.5901 16.5352 54.6851 16.1942 54.6851 15.8171V14.6571C54.5939 14.7142 54.4667 14.7694 54.3034 14.8228C54.1363 14.8723 53.9521 14.918 53.7508 14.9599C53.5495 14.998 53.3482 15.0323 53.1469 15.0628C52.9456 15.0894 52.7633 15.1161 52.6 15.1428C52.243 15.1961 51.9315 15.2799 51.6657 15.3942C51.3998 15.5085 51.1947 15.6609 51.0504 15.8513C50.9023 16.0456 50.8282 16.2856 50.8282 16.5713C50.8282 16.979 50.9782 17.2913 51.2783 17.5085C51.5783 17.7218 51.9619 17.8285 52.4291 17.8285ZM58.6672 8.7942H65.2188V11.0799H58.6672V8.7942ZM60.1599 16.7542V6.19992H63.1679V16.3542C63.1679 16.7199 63.2476 16.9885 63.4071 17.1599C63.5704 17.3313 63.8306 17.4171 64.1876 17.4171C64.3053 17.4171 64.4345 17.4075 64.575 17.3885C64.7193 17.3694 64.8428 17.3466 64.9453 17.3199L65.4239 19.5885C65.0934 19.6837 64.7744 19.7542 64.4668 19.7999C64.1591 19.8456 63.8553 19.8685 63.5553 19.8685C62.4728 19.8685 61.6354 19.598 61.0429 19.0571C60.4542 18.5123 60.1599 17.7447 60.1599 16.7542ZM71.4342 19.9313C70.3365 19.9313 69.387 19.6952 68.5857 19.2228C67.7843 18.7504 67.1671 18.0913 66.7342 17.2456C66.3012 16.4037 66.0847 15.4228 66.0847 14.3028C66.0847 13.1713 66.3012 12.1847 66.7342 11.3428C67.1671 10.4971 67.7843 9.83801 68.5857 9.36563C69.387 8.89325 70.3365 8.65706 71.4342 8.65706C72.5356 8.65706 73.487 8.89325 74.2883 9.36563C75.0897 9.83801 75.7069 10.4971 76.1399 11.3428C76.5728 12.1847 76.7893 13.1713 76.7893 14.3028C76.7893 15.4228 76.5728 16.4037 76.1399 17.2456C75.7069 18.0913 75.0897 18.7504 74.2883 19.2228C73.487 19.6952 72.5356 19.9313 71.4342 19.9313ZM71.4512 17.5656C71.9526 17.5656 72.3723 17.4247 72.7103 17.1428C73.0445 16.8571 73.299 16.4666 73.4737 15.9713C73.6446 15.4799 73.73 14.918 73.73 14.2856C73.73 13.6456 73.6446 13.0818 73.4737 12.5942C73.299 12.1066 73.0445 11.7218 72.7103 11.4399C72.3723 11.1618 71.9526 11.0228 71.4512 11.0228C70.9461 11.0228 70.5226 11.1618 70.1808 11.4399C69.839 11.7218 69.5826 12.1066 69.4117 12.5942C69.2408 13.0818 69.1554 13.6456 69.1554 14.2856C69.1554 14.918 69.2408 15.4799 69.4117 15.9713C69.5826 16.4666 69.839 16.8571 70.1808 17.1428C70.5226 17.4247 70.9461 17.5656 71.4512 17.5656ZM84.3036 19.8913C83.7187 19.8913 83.2212 19.7923 82.811 19.5942C82.4046 19.3999 82.0723 19.1542 81.814 18.8571C81.5596 18.5637 81.3602 18.2666 81.2159 17.9656H81.0791V19.7142H78.1224V5.16563H81.1304V10.6399H81.2159C81.3526 10.3428 81.5482 10.0399 81.8026 9.73134C82.0533 9.42658 82.3837 9.17134 82.7939 8.96563C83.2041 8.75992 83.7111 8.65706 84.315 8.65706C85.1126 8.65706 85.8437 8.86468 86.5083 9.27992C87.173 9.69134 87.7066 10.3142 88.1092 11.1485C88.5118 11.9828 88.7131 13.0247 88.7131 14.2742C88.7131 15.4856 88.5194 16.5104 88.132 17.3485C87.7408 18.1828 87.2129 18.8152 86.5482 19.2456C85.8836 19.6761 85.1354 19.8913 84.3036 19.8913ZM83.3465 17.4856C83.8403 17.4856 84.2561 17.3504 84.5942 17.0799C84.9322 16.8056 85.1885 16.4247 85.3632 15.9371C85.538 15.4532 85.6253 14.8952 85.6253 14.2628C85.6253 13.6342 85.5399 13.0799 85.3689 12.5999C85.198 12.1199 84.9436 11.7447 84.6056 11.4742C84.2675 11.1999 83.8479 11.0628 83.3465 11.0628C82.8604 11.0628 82.4483 11.1942 82.1103 11.4571C81.7685 11.7199 81.5083 12.0913 81.3298 12.5713C81.1513 13.0475 81.062 13.6113 81.062 14.2628C81.062 14.9104 81.1532 15.4742 81.3355 15.9542C81.5178 16.438 81.778 16.8132 82.116 17.0799C82.4578 17.3504 82.868 17.4856 83.3465 17.4856ZM93.0485 19.7142H90.0348V8.7942H93.0485V19.7142ZM91.5388 7.39992C91.0906 7.39992 90.707 7.24944 90.388 6.94849C90.0689 6.65134 89.9094 6.29134 89.9094 5.86849C89.9094 5.44563 90.0689 5.08563 90.388 4.78849C90.707 4.49134 91.0906 4.34277 91.5388 4.34277C91.9907 4.34277 92.3762 4.49134 92.6952 4.78849C93.0143 5.08563 93.1738 5.44563 93.1738 5.86849C93.1738 6.29134 93.0143 6.65134 92.6952 6.94849C92.3762 7.24944 91.9907 7.39992 91.5388 7.39992Z" fill="#4A4A4A"/>
</g>
<defs>
<clipPath id="clip0_663_4435">
<rect width="94" height="24" fill="white"/>
</clipPath>
</defs>
</svg>
