<svg width="80" height="80" viewBox="0 0 80 80" fill="none" xmlns="http://www.w3.org/2000/svg">
<path d="M14.3935 69.4281L15.0579 68.6807L15.0578 68.6806L14.3935 69.4281ZM65.6068 69.4281L64.9424 68.6807L64.9424 68.6807L65.6068 69.4281ZM69.5264 41.1421L69.2392 40.1842L69.2391 40.1842L69.5264 41.1421ZM72.0881 40.1184L72.7144 40.898L72.7144 40.898L72.0881 40.1184ZM73.0887 38.7731L72.1622 38.3969L72.162 38.3974L73.0887 38.7731ZM72.2344 25.4423L73.1245 24.9866L73.1245 24.9865L72.2344 25.4423ZM67.8911 21.0991L67.4353 21.9892L67.4353 21.9892L67.8911 21.0991ZM12.109 21.0991L12.5648 21.9892L12.5648 21.9892L12.109 21.0991ZM7.76578 25.4423L8.65588 25.8981L8.65588 25.8981L7.76578 25.4423ZM6.91128 38.7731L5.98465 39.1491L5.98466 39.1491L6.91128 38.7731ZM7.91218 40.1184L8.53848 39.3388L8.53841 39.3388L7.91218 40.1184ZM10.4736 41.1421L10.761 40.1842L10.7608 40.1842L10.4736 41.1421ZM32.7144 52.0857L33.0859 51.1573L33.0857 51.1572L32.7144 52.0857ZM35.0481 53.0194L34.6766 53.9479L34.6768 53.9479L35.0481 53.0194ZM44.9521 53.0194L45.3234 53.9479L45.3235 53.9479L44.9521 53.0194ZM47.2857 52.0857L46.9144 51.1572L46.9143 51.1573L47.2857 52.0857ZM29.6269 13.0002C29.4429 13.5209 29.7158 14.0922 30.2365 14.2763C30.7572 14.4603 31.3285 14.1874 31.5126 13.6667L30.5697 13.3334L29.6269 13.0002ZM48.4889 13.6666C48.6729 14.1874 49.2442 14.4603 49.765 14.2763C50.2857 14.0922 50.5586 13.5209 50.3746 13.0002L49.4317 13.3334L48.4889 13.6666ZM10.0001 40.0001H9.00008C9.00008 46.2701 8.99898 52.7073 9.55459 58.0668C9.83257 60.7484 10.2535 63.2007 10.8998 65.2509C11.5417 67.287 12.4363 69.0264 13.7291 70.1755L14.3935 69.4281L15.0578 68.6806C14.1539 67.8772 13.4011 66.5332 12.8073 64.6496C12.218 62.7802 11.8151 60.4766 11.5439 57.8606C11.0012 52.6251 11.0001 46.3007 11.0001 40.0001H10.0001ZM14.3935 69.4281L13.7291 70.1755C16.145 72.323 19.2465 73.3391 23.4223 73.8382C27.5803 74.3351 32.9542 74.3334 40.0001 74.3334V73.3334V72.3334C32.9038 72.3334 27.6712 72.3317 23.6597 71.8523C19.666 71.375 17.0353 70.4385 15.0579 68.6807L14.3935 69.4281ZM40.0001 73.3334V74.3334C47.0459 74.3334 52.4199 74.3351 56.5778 73.8382C60.7537 73.3391 63.8552 72.323 66.2711 70.1755L65.6068 69.4281L64.9424 68.6807C62.9649 70.4385 60.3342 71.375 56.3405 71.8523C52.329 72.3317 47.0963 72.3334 40.0001 72.3334V73.3334ZM65.6068 69.4281L66.2711 70.1755C67.5639 69.0264 68.4585 67.287 69.1004 65.2509C69.7467 63.2006 70.1676 60.7484 70.4456 58.0668C71.0012 52.7073 71.0001 46.2701 71.0001 40.0001H70.0001H69.0001C69.0001 46.3007 68.999 52.6251 68.4562 57.8606C68.1851 60.4766 67.7822 62.7802 67.1929 64.6496C66.5991 66.5333 65.8463 67.8773 64.9424 68.6807L65.6068 69.4281ZM48.8678 47.3397L49.1551 48.2976L69.8138 42.0999L69.5264 41.1421L69.2391 40.1842L48.5804 46.3819L48.8678 47.3397ZM69.5264 41.1421L69.8136 42.0999C71.0986 41.7147 72.0183 41.4572 72.7144 40.898L72.0881 40.1184L71.4618 39.3388C71.1438 39.5943 70.6935 39.7482 69.2392 40.1842L69.5264 41.1421ZM72.0881 40.1184L72.7144 40.898C73.29 40.4355 73.7381 39.8331 74.0155 39.1487L73.0887 38.7731L72.162 38.3974C72.0127 38.7657 71.7715 39.09 71.4617 39.3389L72.0881 40.1184ZM73.0887 38.7731L74.0153 39.1492C74.3513 38.3217 74.3334 37.3667 74.3334 36.0257H73.3334H72.3334C72.3334 37.5441 72.3156 38.0191 72.1622 38.3969L73.0887 38.7731ZM73.3334 36.0257H74.3334C74.3334 33.2299 74.3342 31.0727 74.1927 29.3479C74.0502 27.6113 73.7585 26.2247 73.1245 24.9866L72.2344 25.4423L71.3443 25.8981C71.8093 26.8063 72.0671 27.8991 72.1994 29.5114C72.3326 31.1355 72.3334 33.1968 72.3334 36.0257H73.3334ZM72.2344 25.4423L73.1245 24.9865C72.0726 22.9323 70.4013 21.2609 68.3468 20.209L67.8911 21.0991L67.4353 21.9892C69.1162 22.8498 70.4836 24.2173 71.3443 25.8981L72.2344 25.4423ZM67.8911 21.0991L68.3469 20.209C67.1087 19.575 65.7221 19.2833 63.9856 19.1408C62.2607 18.9993 60.1035 19.0001 57.3078 19.0001V20.0001V21.0001C60.1367 21.0001 62.1979 21.0009 63.822 21.1341C65.4344 21.2664 66.5271 21.5242 67.4353 21.9892L67.8911 21.0991ZM57.3078 20.0001V19.0001H22.6922V20.0001V21.0001H57.3078V20.0001ZM22.6922 20.0001V19.0001C19.8965 19.0001 17.7393 18.9993 16.0145 19.1408C14.2779 19.2833 12.8914 19.575 11.6532 20.209L12.109 21.0991L12.5648 21.9892C13.473 21.5242 14.5657 21.2664 16.1781 21.1341C17.8021 21.0009 19.8634 21.0001 22.6922 21.0001V20.0001ZM12.109 21.0991L11.6532 20.209C9.59896 21.2609 7.92758 22.9323 6.87568 24.9866L7.76578 25.4423L8.65588 25.8981C9.51652 24.2173 10.884 22.8498 12.5648 21.9892L12.109 21.0991ZM7.76578 25.4423L6.87569 24.9866C6.24168 26.2247 5.94995 27.6113 5.80748 29.3479C5.66596 31.0727 5.66675 33.2299 5.66675 36.0257H6.66675H7.66675C7.66675 33.1968 7.66753 31.1355 7.80078 29.5114C7.93306 27.8991 8.19085 26.8063 8.65588 25.8981L7.76578 25.4423ZM6.66675 36.0257H5.66675C5.66675 37.3668 5.64892 38.3216 5.98465 39.1491L6.91128 38.7731L7.83791 38.3971C7.68458 38.0192 7.66675 37.5441 7.66675 36.0257H6.66675ZM6.91128 38.7731L5.98466 39.1491C6.26221 39.8331 6.71004 40.4355 7.28596 40.8981L7.91218 40.1184L8.53841 39.3388C8.22873 39.09 7.98749 38.7657 7.83791 38.3971L6.91128 38.7731ZM7.91218 40.1184L7.28589 40.898C7.98197 41.4572 8.90136 41.7146 10.1864 42.0999L10.4736 41.1421L10.7608 40.1842C9.30667 39.7482 8.85646 39.5943 8.53848 39.3388L7.91218 40.1184ZM10.4736 41.1421L10.1863 42.0999L30.845 48.2976L31.1323 47.3397L31.4197 46.3819L10.761 40.1842L10.4736 41.1421ZM46.6667 41.6667V40.6667H33.3334V41.6667V42.6667H46.6667V41.6667ZM33.3334 41.6667V40.6667C31.8606 40.6667 30.6667 41.8608 30.6667 43.3334H31.6667H32.6667C32.6667 42.9653 32.9653 42.6667 33.3334 42.6667V41.6667ZM31.6667 43.3334H30.6667V50.5384H31.6667H32.6667V43.3334H31.6667ZM31.6667 50.5384H30.6667C30.6667 51.6286 31.3306 52.6094 32.3431 53.0143L32.7144 52.0857L33.0857 51.1572C32.8328 51.0561 32.6667 50.8109 32.6667 50.5384H31.6667ZM32.7144 52.0857L32.343 53.0142L34.6766 53.9479L35.0481 53.0194L35.4195 52.091L33.0859 51.1573L32.7144 52.0857ZM35.0481 53.0194L34.6768 53.9479C38.0941 55.3146 41.906 55.3146 45.3234 53.9479L44.9521 53.0194L44.5808 52.0909C41.6401 53.2669 38.36 53.2669 35.4194 52.0909L35.0481 53.0194ZM44.9521 53.0194L45.3235 53.9479L47.6572 53.0142L47.2857 52.0857L46.9143 51.1573L44.5806 52.091L44.9521 53.0194ZM47.2857 52.0857L47.6571 53.0143C48.6695 52.6094 49.3334 51.6286 49.3334 50.5384H48.3334H47.3334C47.3334 50.8109 47.1674 51.0561 46.9144 51.1572L47.2857 52.0857ZM48.3334 50.5384H49.3334V43.3334H48.3334H47.3334V50.5384H48.3334ZM48.3334 43.3334H49.3334C49.3334 41.8608 48.1394 40.6667 46.6667 40.6667V41.6667V42.6667C47.0348 42.6667 47.3334 42.9654 47.3334 43.3334H48.3334ZM30.5697 13.3334L31.5126 13.6667C32.7486 10.1698 36.0837 7.66675 40.0008 7.66675V6.66675V5.66675C35.2098 5.66675 31.1365 8.72915 29.6269 13.0002L30.5697 13.3334ZM40.0008 6.66675V7.66675C43.9178 7.66675 47.253 10.1698 48.4889 13.6666L49.4317 13.3334L50.3746 13.0002C48.8651 8.72913 44.7917 5.66675 40.0008 5.66675V6.66675Z" fill="#705200"/>
</svg>
