<svg width="114" height="24" viewBox="0 0 114 24" fill="none" xmlns="http://www.w3.org/2000/svg">
<g clip-path="url(#clip0_663_4441)">
<path d="M5.67164 9.23063L31.7756 16.2083C32.7701 16.4742 33.4627 17.381 33.4627 18.4176V23.4287H27.791V21.0549L16.7319 18.099L5.67164 21.0549V23.4287H0V18.4176C2.5749e-06 17.381 0.69261 16.4742 1.68709 16.2083L5.67221 15.1425L1.68709 14.0777C0.692598 13.8119 1.71605e-05 12.9051 0 11.8685V8.5716C0 7.30926 1.01571 6.28589 2.26866 6.28589H5.67164V9.23063Z" fill="#514E4E"/>
<path d="M31.194 6.28589C32.4469 6.28589 33.4627 7.30926 33.4627 8.5716V12.0002H27.791V6.28589H31.194Z" fill="#514E4E"/>
<path d="M25.5226 0.571533C26.7755 0.571533 27.7913 1.59488 27.7913 2.85725V6.28582H5.67188V2.85725C5.67188 1.59488 6.68761 0.571533 7.94053 0.571533H25.5226Z" fill="#514E4E"/>
<path d="M45.8438 14.2971L43.8644 16.5713L43.8757 12.9485H44.3124L47.7721 8.7942H51.2205L46.5697 14.2971H45.8438ZM44.1479 19.7142H41.1533V5.16563H44.1479V19.7142ZM51.4247 19.7142H47.9082L44.7265 14.9656L46.7229 12.8171L51.4247 19.7142ZM56.9205 19.9313C55.8277 19.9313 54.8825 19.6952 54.0847 19.2228C53.2869 18.7504 52.6724 18.0913 52.2414 17.2456C51.8141 16.4037 51.6005 15.4228 51.6005 14.3028C51.6005 13.1713 51.8141 12.1847 52.2414 11.3428C52.6724 10.4971 53.2869 9.83801 54.0847 9.36563C54.8825 8.89325 55.8277 8.65706 56.9205 8.65706C58.0208 8.65706 58.9698 8.89325 59.7676 9.36563C60.5655 9.83801 61.178 10.4971 61.6053 11.3428C62.0363 12.1847 62.2518 13.1713 62.2518 14.3028C62.2518 15.4228 62.0363 16.4037 61.6053 17.2456C61.178 18.0913 60.5655 18.7504 59.7676 19.2228C58.9698 19.6952 58.0208 19.9313 56.9205 19.9313ZM56.9375 17.5656C57.4366 17.5656 57.8544 17.4247 58.1909 17.1428C58.5274 16.8571 58.7808 16.4666 58.9509 15.9713C59.1211 15.4799 59.2062 14.918 59.2062 14.2856C59.2062 13.6456 59.1211 13.0818 58.9509 12.5942C58.7808 12.1066 58.5274 11.7218 58.1909 11.4399C57.8544 11.1618 57.4366 11.0228 56.9375 11.0228C56.4346 11.0228 56.013 11.1618 55.6727 11.4399C55.3362 11.7218 55.081 12.1066 54.9071 12.5942C54.7369 13.0818 54.6518 13.6456 54.6518 14.2856C54.6518 14.918 54.7369 15.4799 54.9071 15.9713C55.081 16.4666 55.3362 16.8571 55.6727 17.1428C56.013 17.4247 56.4346 17.5656 56.9375 17.5656ZM72.5742 11.9142L69.8291 12.0799C69.7611 11.7332 69.572 11.4342 69.262 11.1828C68.9519 10.9313 68.5341 10.8056 68.0085 10.8056C67.5435 10.8056 67.154 10.9047 66.8402 11.1028C66.5264 11.2971 66.3694 11.5561 66.3694 11.8799C66.3694 12.1428 66.4715 12.3656 66.6757 12.5485C66.8799 12.7352 67.2315 12.8818 67.7306 12.9885L69.693 13.3771C70.7479 13.5904 71.5344 13.939 72.0524 14.4228C72.5667 14.9028 72.8238 15.5371 72.8238 16.3256C72.8238 17.0494 72.6177 17.6799 72.2056 18.2171C71.7934 18.7542 71.2244 19.1732 70.4984 19.4742C69.7762 19.779 68.9463 19.9313 68.0085 19.9313C66.5755 19.9313 65.4336 19.6285 64.5829 19.0228C63.7321 18.4171 63.2368 17.5961 63.0969 16.5599L66.0291 16.4056C66.1274 16.8475 66.3486 17.1828 66.6927 17.4113C67.033 17.6361 67.4716 17.7485 68.0085 17.7485C68.5341 17.7485 68.9595 17.6456 69.2847 17.4399C69.6098 17.2304 69.7724 16.9656 69.7724 16.6456C69.7724 16.1085 69.3074 15.7447 68.3772 15.5542L66.5056 15.1656C65.4544 14.9485 64.6698 14.579 64.1518 14.0571C63.6338 13.539 63.3748 12.8723 63.3748 12.0571C63.3748 11.3561 63.5658 10.7504 63.9476 10.2399C64.3295 9.73325 64.8646 9.34277 65.5527 9.06849C66.2409 8.7942 67.0463 8.65706 67.9688 8.65706C69.3414 8.65706 70.419 8.94849 71.2017 9.53134C71.9881 10.1142 72.4457 10.9085 72.5742 11.9142ZM73.3002 8.7942H79.8226V11.0799H73.3002V8.7942ZM74.7862 16.7542V6.19992H77.7808V16.3542C77.7808 16.7199 77.8602 16.9885 78.019 17.1599C78.1816 17.3313 78.4406 17.4171 78.796 17.4171C78.9132 17.4171 79.0437 17.4075 79.1874 17.3885C79.3273 17.3694 79.4501 17.3466 79.556 17.3199L80.0268 19.5885C79.6978 19.6837 79.3802 19.7542 79.0739 19.7999C78.7676 19.8456 78.4652 19.8685 78.1665 19.8685C77.0888 19.8685 76.2551 19.598 75.6653 19.0571C75.0792 18.5123 74.7862 17.7447 74.7862 16.7542ZM84.1274 19.7142H81.1327V8.7942H84.1274V19.7142ZM82.6244 7.39992C82.1782 7.39992 81.7982 7.24944 81.4844 6.94849C81.1668 6.65134 81.0079 6.29134 81.0079 5.86849C81.0079 5.44563 81.1668 5.08563 81.4844 4.78849C81.7982 4.49134 82.1782 4.34277 82.6244 4.34277C83.0781 4.34277 83.4638 4.49134 83.7814 4.78849C84.0952 5.08563 84.2521 5.44563 84.2521 5.86849C84.2521 6.29134 84.0952 6.65134 83.7814 6.94849C83.4638 7.24944 83.0781 7.39992 82.6244 7.39992ZM88.8859 19.7142H85.8912V8.7942H88.7327V10.7371H88.8688C89.0957 10.0932 89.4738 9.58658 90.0032 9.21706C90.5325 8.84373 91.1621 8.65706 91.8918 8.65706C92.6367 8.65706 93.2681 8.84563 93.7862 9.22277C94.3079 9.59611 94.6558 10.1009 94.8297 10.7371H94.9432C95.1625 10.1085 95.5633 9.60563 96.1456 9.22849C96.7278 8.84753 97.4141 8.65706 98.2044 8.65706C99.2101 8.65706 100.033 8.98087 100.672 9.62849C101.307 10.2723 101.624 11.1866 101.624 12.3713V19.7142H98.6184V12.9771C98.6184 12.3637 98.4577 11.9085 98.1363 11.6113C97.8187 11.3104 97.4198 11.1599 96.9396 11.1599C96.3989 11.1599 95.9754 11.3332 95.6691 11.6799C95.3629 12.0304 95.2097 12.4875 95.2097 13.0513V19.7142H92.3002V12.8971C92.3002 12.3713 92.1489 11.9504 91.8465 11.6342C91.5402 11.318 91.1413 11.1599 90.6497 11.1599C90.3132 11.1599 90.0126 11.2437 89.7479 11.4113C89.4833 11.5828 89.2734 11.8171 89.1184 12.1142C88.9634 12.4075 88.8859 12.7599 88.8859 13.1713V19.7142ZM102.611 8.7942H109.134V11.0799H102.611V8.7942ZM104.097 16.7542V6.19992H107.092V16.3542C107.092 16.7199 107.171 16.9885 107.33 17.1599C107.493 17.3313 107.752 17.4171 108.107 17.4171C108.224 17.4171 108.355 17.4075 108.498 17.3885C108.638 17.3694 108.759 17.3466 108.861 17.3199L109.338 19.5885C109.009 19.6837 108.691 19.7542 108.385 19.7999C108.079 19.8456 107.776 19.8685 107.478 19.8685C106.4 19.8685 105.566 19.598 104.976 19.0571C104.39 18.5123 104.097 17.7447 104.097 16.7542ZM113.438 19.7142H110.444V8.7942H113.438V19.7142ZM111.935 7.39992C111.489 7.39992 111.109 7.24944 110.795 6.94849C110.478 6.65134 110.319 6.29134 110.319 5.86849C110.319 5.44563 110.478 5.08563 110.795 4.78849C111.109 4.49134 111.489 4.34277 111.935 4.34277C112.389 4.34277 112.775 4.49134 113.092 4.78849C113.406 5.08563 113.563 5.44563 113.563 5.86849C113.563 6.29134 113.406 6.65134 113.092 6.94849C112.775 7.24944 112.389 7.39992 111.935 7.39992Z" fill="#4A4A4A"/>
</g>
<defs>
<clipPath id="clip0_663_4441">
<rect width="114" height="24" fill="white"/>
</clipPath>
</defs>
</svg>
