<svg width="102" height="24" viewBox="0 0 102 24" fill="none" xmlns="http://www.w3.org/2000/svg">
<path d="M19.9219 14.9735C19.9219 11.4389 17.0677 8.57349 13.5469 8.57349H8.23438V14.9735H13.5469V22.9735H19.9219V14.9735Z" fill="#514E4E"/>
<path d="M0.265625 15.5067C0.265626 19.6305 3.59551 22.9734 7.70312 22.9734H11.9531V16.5734H7.70312C7.11631 16.5734 6.64062 16.0958 6.64062 15.5067V14.9734H0.265625V15.5067Z" fill="#514E4E"/>
<path d="M13.5469 0.573486C21.4687 0.573486 27.8906 7.02058 27.8906 14.9735V22.9735H21.5156V14.9735C21.5156 10.5552 17.9479 6.97349 13.5469 6.97349H7.70312C7.11631 6.97349 6.64062 7.45104 6.64062 8.04015V8.57349H0.265625V8.04015C0.265626 3.91643 3.59551 0.573486 7.70312 0.573486H13.5469Z" fill="#514E4E"/>
<path d="M41.1241 8.45334L37.7294 18.9333H34.6694L39.3338 5.35467H43.0207L47.6797 18.9333H44.6251L41.2304 8.45334H41.1241ZM37.5435 15.8347V13.5947H44.7791V15.8347H37.5435ZM54.4054 19.0987C53.86 19.0987 53.396 19.0062 53.0135 18.8213C52.6345 18.64 52.3246 18.4107 52.0838 18.1333C51.8465 17.8596 51.6606 17.5822 51.526 17.3013H51.3985V18.9333H48.6413V5.35467H51.4463V10.464H51.526C51.6535 10.1867 51.8359 9.904 52.0732 9.616C52.3069 9.33156 52.6151 9.09334 52.9976 8.90134C53.3801 8.70934 53.8529 8.61334 54.416 8.61334C55.1597 8.61334 55.8415 8.80711 56.4613 9.19467C57.0811 9.57867 57.5787 10.16 57.9541 10.9387C58.3295 11.7173 58.5172 12.6898 58.5172 13.856C58.5172 14.9867 58.3366 15.9431 57.9754 16.7253C57.6106 17.504 57.1183 18.0942 56.4985 18.496C55.8787 18.8978 55.181 19.0987 54.4054 19.0987ZM53.5129 16.8533C53.9733 16.8533 54.3611 16.7271 54.6763 16.4747C54.9915 16.2187 55.2306 15.8631 55.3935 15.408C55.5564 14.9564 55.6379 14.4356 55.6379 13.8453C55.6379 13.2587 55.5582 12.7413 55.3988 12.2933C55.2394 11.8453 55.0021 11.4951 54.6869 11.2427C54.3717 10.9867 53.9804 10.8587 53.5129 10.8587C53.0595 10.8587 52.6753 10.9813 52.3601 11.2267C52.0413 11.472 51.7987 11.8187 51.6322 12.2667C51.4658 12.7111 51.3826 13.2373 51.3826 13.8453C51.3826 14.4498 51.4676 14.976 51.6376 15.424C51.8076 15.8756 52.0502 16.2258 52.3654 16.4747C52.6841 16.7271 53.0666 16.8533 53.5129 16.8533ZM68.1754 11.6533L65.6094 11.808C65.5421 11.4844 65.3633 11.2053 65.0729 10.9707C64.7825 10.736 64.3929 10.6187 63.9041 10.6187C63.4685 10.6187 63.1037 10.7111 62.8097 10.896C62.5158 11.0773 62.3688 11.3191 62.3688 11.6213C62.3688 11.8667 62.4644 12.0747 62.6557 12.2453C62.8434 12.4196 63.171 12.5564 63.6385 12.656L65.4819 13.0187C66.4665 13.2178 67.2014 13.5431 67.6866 13.9947C68.1718 14.4427 68.4144 15.0347 68.4144 15.7707C68.4144 16.4462 68.2214 17.0347 67.8354 17.536C67.4458 18.0373 66.9128 18.4284 66.2363 18.7093C65.5563 18.9938 64.7789 19.136 63.9041 19.136C62.5583 19.136 61.4869 18.8533 60.6901 18.288C59.8967 17.7227 59.4328 16.9564 59.2982 15.9893L62.0501 15.8453C62.1421 16.2578 62.3476 16.5707 62.6663 16.784C62.9886 16.9938 63.4012 17.0987 63.9041 17.0987C64.3929 17.0987 64.7895 17.0027 65.0941 16.8107C65.4022 16.6151 65.5563 16.368 65.5563 16.0693C65.5563 15.568 65.1207 15.2284 64.2494 15.0507L62.4963 14.688C61.5082 14.4853 60.7715 14.1404 60.2863 13.6533C59.8046 13.1698 59.5638 12.5476 59.5638 11.7867C59.5638 11.1324 59.7427 10.5671 60.1004 10.0907C60.4545 9.61778 60.9539 9.25334 61.5985 8.99734C62.2431 8.74134 62.9992 8.61334 63.8669 8.61334C65.149 8.61334 66.1584 8.88534 66.8951 9.42934C67.6282 9.97334 68.055 10.7147 68.1754 11.6533ZM74.1519 19.136C73.1284 19.136 72.243 18.9156 71.4957 18.4747C70.7484 18.0338 70.1729 17.4187 69.7691 16.6293C69.3689 15.8436 69.1688 14.928 69.1688 13.8827C69.1688 12.8267 69.3689 11.9058 69.7691 11.12C70.1729 10.3307 70.7484 9.71556 71.4957 9.27467C72.243 8.83378 73.1284 8.61334 74.1519 8.61334C75.1826 8.61334 76.0715 8.83378 76.8188 9.27467C77.5661 9.71556 78.1398 10.3307 78.5401 11.12C78.9438 11.9058 79.1457 12.8267 79.1457 13.8827C79.1457 14.928 78.9438 15.8436 78.5401 16.6293C78.1398 17.4187 77.5661 18.0338 76.8188 18.4747C76.0715 18.9156 75.1826 19.136 74.1519 19.136ZM74.1679 16.928C74.6354 16.928 75.0267 16.7964 75.3419 16.5333C75.6571 16.2667 75.8944 15.9022 76.0538 15.44C76.2132 14.9813 76.2929 14.4569 76.2929 13.8667C76.2929 13.2693 76.2132 12.7431 76.0538 12.288C75.8944 11.8329 75.6571 11.4738 75.3419 11.2107C75.0267 10.9511 74.6354 10.8213 74.1679 10.8213C73.6968 10.8213 73.3019 10.9511 72.9832 11.2107C72.668 11.4738 72.4289 11.8329 72.266 12.288C72.1066 12.7431 72.0269 13.2693 72.0269 13.8667C72.0269 14.4569 72.1066 14.9813 72.266 15.44C72.4289 15.9022 72.668 16.2667 72.9832 16.5333C73.3019 16.7964 73.6968 16.928 74.1679 16.928ZM83.1938 18.9333H80.3888V8.74134H83.1035V10.528H83.2151C83.4028 9.89867 83.7144 9.42045 84.1501 9.09334C84.5857 8.76978 85.0851 8.608 85.6482 8.608C85.7934 8.608 85.9457 8.61511 86.1051 8.62934C86.2644 8.64356 86.4079 8.67023 86.5354 8.70934V11.2053C86.4008 11.1627 86.2184 11.1271 85.9882 11.0987C85.7544 11.0702 85.5366 11.056 85.3347 11.056C84.931 11.056 84.5662 11.1467 84.2404 11.328C83.911 11.5058 83.6542 11.7547 83.4701 12.0747C83.2859 12.3947 83.1938 12.7609 83.1938 13.1733V18.9333ZM90.1851 18.9333H87.3801V8.74134H90.1851V18.9333ZM88.7772 7.44C88.3593 7.44 88.0034 7.29956 87.7094 7.01867C87.4119 6.74134 87.2632 6.40534 87.2632 6.01067C87.2632 5.616 87.4119 5.28 87.7094 5.00267C88.0034 4.72534 88.3593 4.58667 88.7772 4.58667C89.2022 4.58667 89.5635 4.72534 89.861 5.00267C90.1549 5.28 90.3019 5.616 90.3019 6.01067C90.3019 6.40534 90.1549 6.74134 89.861 7.01867C89.5635 7.29956 89.2022 7.44 88.7772 7.44ZM96.3794 22.96C95.0088 22.96 93.9374 22.688 93.1654 22.144C92.3897 21.6 91.9169 20.9244 91.7469 20.1173L94.3447 19.7707C94.4227 19.9769 94.5466 20.1689 94.7166 20.3467C94.8866 20.5209 95.1133 20.6613 95.3966 20.768C95.6799 20.8747 96.0288 20.928 96.4432 20.928C97.0523 20.928 97.557 20.7804 97.9572 20.4853C98.3574 20.1902 98.5575 19.6942 98.5575 18.9973V17.1307H98.4407C98.3167 17.408 98.1308 17.6747 97.8829 17.9307C97.6349 18.1867 97.318 18.3929 96.9319 18.5493C96.5423 18.7093 96.0784 18.7893 95.5401 18.7893C94.7786 18.7893 94.088 18.6116 93.4682 18.256C92.8484 17.9004 92.3526 17.3547 91.9807 16.6187C91.6053 15.8827 91.4176 14.9529 91.4176 13.8293C91.4176 12.6702 91.607 11.7049 91.986 10.9333C92.3649 10.1582 92.8661 9.57867 93.4894 9.19467C94.1128 8.80711 94.7963 8.61334 95.5401 8.61334C96.1103 8.61334 96.5884 8.70934 96.9744 8.90134C97.3569 9.09334 97.6686 9.33156 97.9094 9.616C98.1538 9.904 98.3362 10.1867 98.4566 10.464H98.5629V8.74134H101.336V19.0453C101.336 19.9058 101.123 20.6276 100.698 21.2107C100.273 21.7938 99.6891 22.2311 98.9454 22.5227C98.2016 22.8142 97.3463 22.96 96.3794 22.96ZM96.4325 16.6613C97.109 16.6613 97.6332 16.4107 98.0051 15.9093C98.3769 15.4044 98.5629 14.7058 98.5629 13.8133C98.5629 13.216 98.4796 12.6969 98.3132 12.256C98.1467 11.8151 97.9077 11.472 97.596 11.2267C97.2808 10.9813 96.893 10.8587 96.4325 10.8587C95.9721 10.8587 95.5826 10.9849 95.2638 11.2373C94.9486 11.4898 94.7078 11.8364 94.5413 12.2773C94.3784 12.7218 94.2969 13.2338 94.2969 13.8133C94.2969 14.3964 94.3784 14.9013 94.5413 15.328C94.7078 15.7582 94.9486 16.0889 95.2638 16.32C95.5826 16.5476 95.9721 16.6613 96.4325 16.6613Z" fill="#4A4A4A"/>
</svg>
