<svg width="23" height="23" viewBox="0 0 23 23" fill="none" xmlns="http://www.w3.org/2000/svg">
<path d="M15.5563 7.07107C15.6501 7.16484 15.7027 7.29201 15.7027 7.42462C15.7027 7.55723 15.6501 7.68441 15.5563 7.77817L12.0208 11.3137L15.5563 14.8492C15.6501 14.943 15.7027 15.0702 15.7027 15.2028C15.7027 15.3354 15.6501 15.4626 15.5563 15.5563C15.4625 15.6501 15.3353 15.7028 15.2027 15.7028C15.0701 15.7028 14.943 15.6501 14.8492 15.5563L11.3137 12.0208L7.77812 15.5563C7.68435 15.6501 7.55717 15.7028 7.42456 15.7028C7.29196 15.7028 7.16478 15.6501 7.07101 15.5563C6.97724 15.4626 6.92456 15.3354 6.92456 15.2028C6.92456 15.0702 6.97724 14.943 7.07101 14.8492L10.6065 11.3137L7.07101 7.77817C6.97724 7.68441 6.92456 7.55723 6.92456 7.42462C6.92456 7.29201 6.97724 7.16484 7.07101 7.07107C7.16478 6.9773 7.29196 6.92462 7.42456 6.92462C7.55717 6.92462 7.68435 6.9773 7.77812 7.07107L11.3137 10.6066L14.8492 7.07107C14.943 6.9773 15.0701 6.92462 15.2027 6.92462C15.3353 6.92462 15.4625 6.9773 15.5563 7.07107Z" fill="white"/>
</svg>
