<svg width="108" height="20" viewBox="0 0 108 20" fill="none" xmlns="http://www.w3.org/2000/svg">
<path d="M10 0L12.9507 5.93874L19.5106 6.90983L14.7743 11.5513L15.8779 18.0902L10 15.02L4.12215 18.0902L5.2257 11.5513L0.489435 6.90983L7.04932 5.93874L10 0Z" fill="#705200"/>
<path d="M32 0L34.9507 5.93874L41.5106 6.90983L36.7743 11.5513L37.8779 18.0902L32 15.02L26.1221 18.0902L27.2257 11.5513L22.4894 6.90983L29.0493 5.93874L32 0Z" fill="#705200"/>
<path d="M54 0L56.9507 5.93874L63.5106 6.90983L58.7743 11.5513L59.8779 18.0902L54 15.02L48.1221 18.0902L49.2257 11.5513L44.4894 6.90983L51.0493 5.93874L54 0Z" fill="#705200"/>
<path d="M76 0L78.9507 5.93874L85.5106 6.90983L80.7743 11.5513L81.8779 18.0902L76 15.02L70.1221 18.0902L71.2257 11.5513L66.4894 6.90983L73.0493 5.93874L76 0Z" fill="#705200"/>
<path d="M98 0L100.951 5.93874L107.511 6.90983L102.774 11.5513L103.878 18.0902L98 15.02L92.1221 18.0902L93.2257 11.5513L88.4894 6.90983L95.0493 5.93874L98 0Z" fill="#705200"/>
</svg>
