<svg width="79" height="24" viewBox="0 0 79 24" fill="none" xmlns="http://www.w3.org/2000/svg">
<g clip-path="url(#clip0_663_4429)">
<path d="M9.6123 2.2811L11.0802 0.798096L22.1292 11.9609L11.0802 23.1237L9.6123 21.6406L19.1933 11.9609L9.6123 2.2811Z" fill="#514E4E"/>
<path d="M7.69629 4.21714L9.1642 2.73413L18.2969 11.961L9.1642 21.1878L7.69629 19.7048L15.3612 11.961L7.69629 4.21714Z" fill="#514E4E"/>
<path d="M0.03125 11.9608L7.24779 4.66992L14.4643 11.9608L7.24779 19.2517L5.77988 17.7686L11.5285 11.9608L7.24779 7.63595L1.49913 13.4438L0.03125 11.9608Z" fill="#514E4E"/>
<path d="M7.24788 8.54199L5.77997 10.025L7.69619 11.9609L3.86377 15.8329L5.33164 17.3158L10.632 11.9609L7.24788 8.54199Z" fill="#514E4E"/>
<path d="M3.41515 15.3799L1.94727 13.8969L5.316 10.4934L6.78387 11.9764L3.41515 15.3799Z" fill="#514E4E"/>
<path d="M30.1855 4.7666H33.1522V18.9768H30.1855V4.7666ZM39.4832 13.6857L37.5607 15.9071L37.5662 12.3685H37.9916L41.3671 8.31079H44.726L40.1959 13.6857H39.4832ZM37.8314 18.9768H34.9145V4.7666H37.8314V18.9768ZM44.9248 18.9768H41.4941L38.4004 14.3387L40.3451 12.2401L44.9248 18.9768ZM51.5211 19.1499C50.9576 19.1499 50.4769 19.0531 50.0792 18.8596C49.6814 18.6699 49.3592 18.4299 49.1124 18.1396C48.862 17.8531 48.6686 17.5629 48.5323 17.2689H48.3997V18.9768H45.527V4.7666H48.4439V10.1136H48.5323C48.6649 9.82335 48.8527 9.52753 49.0958 9.22614C49.3426 8.92846 49.663 8.67916 50.0571 8.47823C50.4548 8.2773 50.9465 8.17683 51.5321 8.17683C52.3055 8.17683 53.0145 8.37962 53.659 8.78521C54.3072 9.18707 54.8265 9.79544 55.2169 10.6103C55.6073 11.4252 55.8025 12.4429 55.8025 13.6633C55.8025 14.8466 55.6129 15.8475 55.2335 16.6661C54.8542 17.481 54.3422 18.0987 53.6977 18.5192C53.0532 18.9396 52.3276 19.1499 51.5211 19.1499ZM50.5985 16.8001C51.0773 16.8001 51.4806 16.668 51.8083 16.4038C52.1361 16.1359 52.3847 15.7638 52.5541 15.2875C52.7236 14.815 52.8083 14.2699 52.8083 13.6522C52.8083 13.0382 52.7254 12.4968 52.5597 12.028C52.3903 11.5592 52.1417 11.1926 51.8139 10.9285C51.4861 10.6606 51.081 10.5266 50.5985 10.5266C50.1271 10.5266 49.7256 10.655 49.3941 10.9117C49.0627 11.1685 48.8104 11.5313 48.6373 12.0001C48.4642 12.4652 48.3776 13.0159 48.3776 13.6522C48.3776 14.2847 48.466 14.8354 48.6428 15.3043C48.8196 15.7768 49.0737 16.1433 49.4052 16.4038C49.733 16.668 50.1307 16.8001 50.5985 16.8001ZM61.8021 23.1908C60.3805 23.1908 59.2664 22.9061 58.4598 22.3368C57.6569 21.7675 57.1671 21.0606 56.9903 20.2159L59.6918 19.8531C59.7728 20.0689 59.9017 20.2699 60.0785 20.4559C60.2553 20.6382 60.491 20.7852 60.7856 20.8968C61.0803 21.0085 61.4412 21.0643 61.8684 21.0643C62.5056 21.0643 63.0322 20.9099 63.4484 20.601C63.8646 20.2922 64.0727 19.7731 64.0727 19.0438V17.0903H63.9456C63.8204 17.3806 63.6289 17.6596 63.3711 17.9275C63.1133 18.1954 62.7836 18.4113 62.3822 18.575C61.9771 18.7424 61.4946 18.8261 60.9348 18.8261C60.1429 18.8261 59.4248 18.6401 58.7802 18.268C58.1357 17.8959 57.6182 17.3247 57.2279 16.5545C56.8411 15.7843 56.6478 14.8113 56.6478 13.6354C56.6478 12.4224 56.8448 11.4122 57.2389 10.6047C57.633 9.79358 58.1541 9.18707 58.8023 8.78521C59.4505 8.37962 60.1613 8.17683 60.9348 8.17683C61.5277 8.17683 62.0231 8.2773 62.4209 8.47823C62.8223 8.67916 63.1482 8.92846 63.3987 9.22614C63.6528 9.52753 63.8425 9.82335 63.9677 10.1136H64.0782V8.31079H66.962V19.094C66.962 19.9945 66.741 20.7499 66.299 21.3601C65.8571 21.9703 65.2494 22.428 64.476 22.7331C63.7025 23.0382 62.8113 23.1908 61.8021 23.1908ZM61.8629 16.5992C62.5663 16.5992 63.1114 16.3368 63.4981 15.8122C63.8848 15.2838 64.0782 14.5526 64.0782 13.6187C64.0782 12.9936 63.9916 12.4503 63.8185 11.9889C63.6454 11.5275 63.395 11.1685 63.0672 10.9117C62.7431 10.655 62.3417 10.5266 61.8629 10.5266C61.3841 10.5266 60.979 10.6587 60.6475 10.9229C60.316 11.1871 60.0656 11.5499 59.8962 12.0113C59.7268 12.4764 59.642 13.0122 59.642 13.6187C59.642 14.2289 59.7268 14.7573 59.8962 15.2038C60.0656 15.654 60.316 16.0001 60.6475 16.242C60.979 16.4801 61.3841 16.5992 61.8629 16.5992ZM75.4365 14.4447V8.31079H78.3534V18.9768H75.5525V17.0401H75.4365C75.1971 17.6578 74.8049 18.1582 74.2598 18.5415C73.711 18.9285 73.0407 19.1182 72.2489 19.1108C71.5418 19.1108 70.9193 18.9508 70.3816 18.6308C69.8439 18.3071 69.4259 17.8475 69.1276 17.2522C68.8292 16.6531 68.6801 15.9368 68.6801 15.1033V8.31079H71.597V14.5899C71.597 15.2113 71.7627 15.7061 72.0942 16.0745C72.4294 16.4392 72.8732 16.6178 73.4256 16.6103C73.7792 16.6103 74.107 16.5303 74.409 16.3703C74.711 16.2066 74.9577 15.9629 75.1492 15.6392C75.3408 15.3154 75.4365 14.9173 75.4365 14.4447Z" fill="#4A4A4A"/>
</g>
<defs>
<clipPath id="clip0_663_4429">
<rect width="79" height="24" fill="white"/>
</clipPath>
</defs>
</svg>
