<svg width="83" height="24" viewBox="0 0 83 24" fill="none" xmlns="http://www.w3.org/2000/svg">
<g clip-path="url(#clip0_663_4427)">
<path d="M0.42041 21.1034C4.11221 21.1034 7.10498 18.1047 7.10498 14.4057C7.10498 10.7067 4.11221 7.70801 0.42041 7.70801V12.3964C1.52794 12.3964 2.42577 13.2959 2.42577 14.4057C2.42577 15.5154 1.52794 16.415 0.42041 16.415V21.1034Z" fill="#514E4E"/>
<path d="M22.7023 9.94052C21.56 9.57795 20.3436 9.38232 19.0815 9.38232C12.467 9.38232 7.10498 14.755 7.10498 21.3823C7.10498 22.0476 7.15901 22.7001 7.2629 23.3358H14.7043C14.4386 22.7391 14.2909 22.078 14.2909 21.3823C14.2909 18.7314 16.4357 16.5823 19.0815 16.5823C20.5275 16.5823 21.8239 17.2243 22.7023 18.2393V9.94052Z" fill="#514E4E"/>
<path d="M1.5957 1.01025C2.1499 6.03346 6.40027 9.9405 11.5614 9.9405C16.7224 9.9405 20.9728 6.03346 21.527 1.01025H14.3563C13.9136 2.12219 12.829 2.90792 11.5614 2.90792C10.2936 2.90792 9.20913 2.12219 8.76633 1.01025H1.5957Z" fill="#514E4E"/>
<path d="M33.4284 19.2559H30.437V5.04565H33.4284V11.308H33.6178L38.7203 5.04565H42.3077L37.0547 11.4084L42.3745 19.2559H38.7871L34.9045 13.4177L33.4284 15.2205V19.2559ZM46.1457 23.241H43.2045V8.58984H46.0956V10.3926H46.2293C46.363 10.1024 46.5542 9.80658 46.8031 9.50519C47.0482 9.20751 47.3712 8.95821 47.7723 8.75728C48.1734 8.55635 48.6692 8.45589 49.2596 8.45589C50.0395 8.45589 50.7544 8.65868 51.4043 9.06426C52.0541 9.46612 52.5759 10.0745 52.9696 10.8894C53.3632 11.7043 53.56 12.7219 53.56 13.9424C53.56 15.1257 53.3706 16.1266 52.9918 16.9452C52.6093 17.7601 52.0931 18.3777 51.4433 18.7982C50.7934 19.2187 50.0618 19.4289 49.2485 19.4289C48.6766 19.4289 48.192 19.3322 47.7946 19.1387C47.3935 18.9489 47.0667 18.7089 46.8142 18.4187C46.5654 18.1322 46.3704 17.8419 46.2293 17.548H46.1457V23.241ZM48.3182 17.0791C48.7973 17.0791 49.2021 16.947 49.5326 16.6829C49.8631 16.415 50.1138 16.0429 50.2846 15.5666C50.4554 15.094 50.5408 14.5489 50.5408 13.9312C50.5408 13.3173 50.4573 12.7759 50.2902 12.307C50.1231 11.8382 49.8742 11.4717 49.5437 11.2075C49.2132 10.9396 48.8047 10.8057 48.3182 10.8057C47.8392 10.8057 47.4344 10.934 47.1039 11.1908C46.7696 11.4475 46.5152 11.8103 46.3407 12.2791C46.1662 12.7443 46.0789 13.295 46.0789 13.9312C46.0789 14.5638 46.168 15.1145 46.3463 15.5833C46.5245 16.0559 46.7789 16.4224 47.1094 16.6829C47.4437 16.947 47.8466 17.0791 48.3182 17.0791ZM54.0948 8.58984H60.5008V10.8224H54.0948V8.58984ZM55.5487 16.3647V6.05589H58.4899V15.974C58.4899 16.3312 58.5697 16.5936 58.7294 16.761C58.8891 16.9284 59.1435 17.0122 59.4926 17.0122C59.6077 17.0122 59.734 17.0029 59.8714 16.9843C60.0125 16.9657 60.1332 16.9433 60.2335 16.9173L60.7014 19.1331C60.3783 19.2261 60.0663 19.295 59.7655 19.3396C59.461 19.3843 59.1639 19.4066 58.8743 19.4066C57.8122 19.4066 56.9933 19.1424 56.4177 18.614C55.8384 18.0819 55.5487 17.3322 55.5487 16.3647ZM66.5726 19.468C65.5031 19.468 64.5747 19.2373 63.7874 18.7759C63.0038 18.3145 62.4022 17.6708 61.9826 16.8447C61.5592 16.0224 61.3475 15.0643 61.3475 13.9703C61.3475 12.8652 61.5592 11.9015 61.9826 11.0791C62.4022 10.2531 63.0038 9.60938 63.7874 9.14798C64.5747 8.68658 65.5031 8.45589 66.5726 8.45589C67.6533 8.45589 68.5854 8.68658 69.369 9.14798C70.1526 9.60938 70.7561 10.2531 71.1794 11.0791C71.5991 11.9015 71.8089 12.8652 71.8089 13.9703C71.8089 15.0643 71.5991 16.0224 71.1794 16.8447C70.7561 17.6708 70.1526 18.3145 69.369 18.7759C68.5854 19.2373 67.6533 19.468 66.5726 19.468ZM66.5949 17.1573C67.0814 17.1573 67.4899 17.0196 67.8204 16.7443C68.1509 16.4652 68.3998 16.0838 68.5669 15.6001C68.7377 15.1201 68.8231 14.5712 68.8231 13.9536C68.8231 13.3284 68.7377 12.7777 68.5669 12.3015C68.3998 11.8252 68.1509 11.4494 67.8204 11.174C67.4899 10.9024 67.0814 10.7666 66.5949 10.7666C66.0973 10.7666 65.6832 10.9024 65.3527 11.174C65.0185 11.4494 64.7678 11.8252 64.6007 12.3015C64.4299 12.7777 64.3445 13.3284 64.3445 13.9536C64.3445 14.5712 64.4299 15.1201 64.6007 15.6001C64.7678 16.0838 65.0185 16.4652 65.3527 16.7443C65.6832 17.0196 66.0973 17.1573 66.5949 17.1573ZM81.9471 11.6373L79.2566 11.7991C79.186 11.4605 78.9985 11.1684 78.694 10.9229C78.3895 10.6773 77.9791 10.5545 77.4629 10.5545C77.0061 10.5545 76.6255 10.6512 76.321 10.8447C76.0127 11.0345 75.8586 11.2875 75.8586 11.6038C75.8586 11.8605 75.957 12.0782 76.1539 12.2568C76.3544 12.4391 76.6998 12.5824 77.19 12.6866L79.1229 13.0661C80.1553 13.2745 80.9259 13.615 81.4347 14.0875C81.9434 14.5564 82.1978 15.1759 82.1978 15.9461C82.1978 16.6531 81.9936 17.2689 81.5851 17.7936C81.1803 18.3182 80.6232 18.7275 79.9139 19.0215C79.2009 19.3191 78.3839 19.468 77.4629 19.468C76.0554 19.468 74.9339 19.1722 74.0984 18.5805C73.2665 17.9889 72.78 17.187 72.6389 16.175L75.5244 16.0243C75.6172 16.4559 75.8326 16.7833 76.1706 17.0066C76.5085 17.2261 76.9393 17.3359 77.4629 17.3359C77.9791 17.3359 78.3969 17.2354 78.7163 17.0345C79.0356 16.8298 79.1953 16.5712 79.1953 16.2587C79.1953 15.734 78.7386 15.3787 77.825 15.1926L75.9923 14.8131C74.9562 14.601 74.1838 14.2401 73.675 13.7303C73.1699 13.2243 72.9174 12.5731 72.9174 11.7768C72.9174 11.0922 73.1031 10.5005 73.4745 10.0019C73.8495 9.50705 74.375 9.12565 75.0509 8.85775C75.7268 8.58984 76.5196 8.45589 77.4295 8.45589C78.7738 8.45589 79.8322 8.74054 80.6047 9.30984C81.3734 9.87914 81.8209 10.655 81.9471 11.6373Z" fill="#4A4A4A"/>
</g>
<defs>
<clipPath id="clip0_663_4427">
<rect width="83" height="24" fill="white"/>
</clipPath>
</defs>
</svg>
