<svg width="96" height="24" viewBox="0 0 96 24" fill="none" xmlns="http://www.w3.org/2000/svg">
<g clip-path="url(#clip0_663_4439)">
<path d="M8.52071 0.571533L11.6191 3.61915L0 15.0477V8.9525L8.52071 0.571533Z" fill="#514E4E"/>
<path d="M1.65203 16.6726L8.52071 23.4286L17.0414 15.0477V8.95247L11.6191 3.61914L0 15.0477L0.00236808 15.0501L11.6191 3.61914V12.381L6.39053 17.5239V12.0757L1.65203 16.6726Z" fill="#514E4E"/>
<path d="M28.7035 19.8913C27.8741 19.8913 27.1262 19.6761 26.4597 19.2456C25.7932 18.8152 25.2649 18.1828 24.8748 17.3485C24.4885 16.5104 24.2954 15.4856 24.2954 14.2742C24.2954 13.0247 24.4961 11.9828 24.8975 11.1485C25.299 10.3142 25.8329 9.69134 26.4994 9.27992C27.1659 8.86468 27.893 8.65706 28.6807 8.65706C29.2904 8.65706 29.7998 8.75992 30.2088 8.96563C30.614 9.17134 30.9435 9.42658 31.1972 9.73134C31.4509 10.0399 31.6422 10.3428 31.7709 10.6399H31.8561V5.16563H34.8668V19.7142H31.9072V17.9656H31.7709C31.6346 18.2666 31.4377 18.5637 31.1801 18.8571C30.9188 19.1542 30.5856 19.3999 30.1804 19.5942C29.779 19.7923 29.2867 19.8913 28.7035 19.8913ZM29.6464 17.4856C30.1311 17.4856 30.542 17.3504 30.8791 17.0799C31.2199 16.8132 31.4793 16.438 31.6573 15.9542C31.8353 15.4742 31.9243 14.9104 31.9243 14.2628C31.9243 13.6113 31.8372 13.0475 31.663 12.5713C31.4888 12.0913 31.2294 11.7199 30.8848 11.4571C30.5439 11.1942 30.1311 11.0628 29.6464 11.0628C29.1541 11.0628 28.7394 11.1999 28.4024 11.4742C28.0654 11.7447 27.8097 12.1199 27.6355 12.5999C27.4613 13.0799 27.3742 13.6342 27.3742 14.2628C27.3742 14.8952 27.4613 15.4532 27.6355 15.9371C27.8097 16.4247 28.0672 16.8056 28.4081 17.0799C28.7451 17.3504 29.1579 17.4856 29.6464 17.4856ZM41.5072 19.9313C40.4128 19.9313 39.4661 19.6952 38.667 19.2228C37.868 18.7504 37.2526 18.0913 36.8209 17.2456C36.3929 16.4037 36.179 15.4228 36.179 14.3028C36.179 13.1713 36.3929 12.1847 36.8209 11.3428C37.2526 10.4971 37.868 9.83801 38.667 9.36563C39.4661 8.89325 40.4128 8.65706 41.5072 8.65706C42.6055 8.65706 43.556 8.89325 44.3588 9.36563C45.1579 9.83801 45.7714 10.4971 46.1993 11.3428C46.631 12.1847 46.8469 13.1713 46.8469 14.3028C46.8469 15.4228 46.631 16.4037 46.1993 17.2456C45.7714 18.0913 45.1579 18.7504 44.3588 19.2228C43.556 19.6952 42.6055 19.9313 41.5072 19.9313ZM41.5243 17.5656C42.0242 17.5656 42.4426 17.4247 42.7797 17.1428C43.1167 16.8571 43.3704 16.4666 43.5409 15.9713C43.7113 15.4799 43.7965 14.918 43.7965 14.2856C43.7965 13.6456 43.7113 13.0818 43.5409 12.5942C43.3704 12.1066 43.1167 11.7218 42.7797 11.4399C42.4426 11.1618 42.0242 11.0228 41.5243 11.0228C41.0206 11.0228 40.5984 11.1618 40.2575 11.4399C39.9205 11.7218 39.6649 12.1066 39.4907 12.5942C39.3203 13.0818 39.2351 13.6456 39.2351 14.2856C39.2351 14.918 39.3203 15.4799 39.4907 15.9713C39.6649 16.4666 39.9205 16.8571 40.2575 17.1428C40.5984 17.4247 41.0206 17.5656 41.5243 17.5656ZM57.1853 11.9142L54.436 12.0799C54.3678 11.7332 54.1766 11.4342 53.8623 11.1828C53.5517 10.9313 53.1352 10.8056 52.6126 10.8056C52.1468 10.8056 51.7567 10.9047 51.4424 11.1028C51.1281 11.2971 50.9709 11.5561 50.9709 11.8799C50.9709 12.1428 51.0732 12.3656 51.2777 12.5485C51.4822 12.7352 51.8325 12.8818 52.3285 12.9885L54.2997 13.3771C55.3562 13.5904 56.1439 13.939 56.6627 14.4228C57.1778 14.9028 57.4353 15.5371 57.4353 16.3256C57.4353 17.0494 57.2289 17.6799 56.8161 18.2171C56.4033 18.7542 55.8334 19.1732 55.1063 19.4742C54.383 19.779 53.5517 19.9313 52.6126 19.9313C51.1773 19.9313 50.0336 19.6285 49.1816 19.0228C48.3295 18.4171 47.8334 17.5961 47.6933 16.5599L50.6301 16.4056C50.7285 16.8475 50.9501 17.1828 51.2947 17.4113C51.6355 17.6361 52.0748 17.7485 52.6126 17.7485C53.1352 17.7485 53.5612 17.6456 53.8907 17.4399C54.2164 17.2304 54.3792 16.9656 54.3792 16.6456C54.3792 16.1085 53.9134 15.7447 52.9818 15.5542L51.1072 15.1656C50.0545 14.9485 49.2687 14.579 48.7498 14.0571C48.231 13.539 47.9716 12.8723 47.9716 12.0571C47.9716 11.3561 48.1629 10.7504 48.5454 10.2399C48.9278 9.73325 49.4637 9.34277 50.1529 9.06849C50.8422 8.7942 51.6488 8.65706 52.5728 8.65706C53.9437 8.65706 55.023 8.94849 55.8107 9.53134C56.5984 10.1142 57.0566 10.9085 57.1853 11.9142ZM63.3884 14.2971L61.4059 16.5713L61.4173 12.9485H61.8547L65.3198 8.7942H68.7735L64.1155 14.2971H63.3884ZM61.69 19.7142H58.6907V5.16563H61.69V19.7142ZM68.978 19.7142H65.4561L62.2694 14.9656L64.2746 12.8171L68.978 19.7142ZM72.6022 19.7142H69.6029V8.7942H72.6022V19.7142ZM71.0968 7.39992C70.65 7.39992 70.2675 7.24944 69.9494 6.94849C69.6351 6.65134 69.4779 6.29134 69.4779 5.86849C69.4779 5.44563 69.6351 5.08563 69.9494 4.78849C70.2675 4.49134 70.65 4.34277 71.0968 4.34277C71.5513 4.34277 71.9356 4.49134 72.25 4.78849C72.5681 5.08563 72.7271 5.44563 72.7271 5.86849C72.7271 6.29134 72.5681 6.65134 72.25 6.94849C71.9356 7.24944 71.5513 7.39992 71.0968 7.39992ZM80.5321 19.8913C79.9489 19.8913 79.4547 19.7923 79.0495 19.5942C78.6405 19.3999 78.3072 19.1542 78.0497 18.8571C77.796 18.5637 77.5972 18.2666 77.4533 17.9656H77.317V19.7142H74.3688V5.16563H77.3681V10.6399H77.4533C77.5896 10.3428 77.7846 10.0399 78.0384 9.73134C78.2883 9.42658 78.6178 9.17134 79.0268 8.96563C79.4358 8.75992 79.9413 8.65706 80.5435 8.65706C81.3387 8.65706 82.0677 8.86468 82.7304 9.27992C83.3932 9.69134 83.9252 10.3142 84.3267 11.1485C84.7281 11.9828 84.9288 13.0247 84.9288 14.2742C84.9288 15.4856 84.7356 16.5104 84.3494 17.3485C83.9593 18.1828 83.4329 18.8152 82.7702 19.2456C82.1075 19.6761 81.3614 19.8913 80.5321 19.8913ZM79.5835 17.4856C80.072 17.4856 80.4848 17.3504 80.8218 17.0799C81.1588 16.8056 81.4145 16.4247 81.5887 15.9371C81.7629 15.4532 81.85 14.8952 81.85 14.2628C81.85 13.6342 81.7648 13.0799 81.5943 12.5999C81.4239 12.1199 81.1702 11.7447 80.8332 11.4742C80.4961 11.1999 80.0796 11.0628 79.5835 11.0628C79.0949 11.0628 78.6822 11.1942 78.3451 11.4571C78.0043 11.7199 77.7449 12.0913 77.5669 12.5713C77.3889 13.0475 77.2999 13.6113 77.2999 14.2628C77.2999 14.9104 77.3908 15.4742 77.5726 15.9542C77.7543 16.438 78.0138 16.8132 78.3508 17.0799C78.6916 17.3504 79.1025 17.4856 79.5835 17.4856ZM89.3368 19.9199C88.6514 19.9199 88.036 19.798 87.4907 19.5542C86.9416 19.3104 86.5117 18.9466 86.2012 18.4628C85.8907 17.9828 85.7354 17.3847 85.7354 16.6685C85.7354 16.0552 85.8452 15.5447 86.0649 15.1371C86.2845 14.7332 86.5856 14.4037 86.9681 14.1485C87.3506 13.8932 87.7842 13.7009 88.2689 13.5713C88.7536 13.4418 89.2687 13.3504 89.814 13.2971C90.4426 13.2399 90.9463 13.1809 91.325 13.1199C91.7075 13.0628 91.9877 12.9732 92.1657 12.8513C92.3437 12.7332 92.4327 12.5599 92.4327 12.3313V12.2799C92.4327 11.8342 92.2926 11.4875 92.0123 11.2399C91.7321 10.9923 91.3364 10.8685 90.8251 10.8685C90.2874 10.8685 89.8575 10.9866 89.5357 11.2228C89.2175 11.459 89.0055 11.7599 88.8994 12.1256L86.116 11.9028C86.2561 11.2361 86.5345 10.6609 86.951 10.1771C87.3638 9.69325 87.8997 9.31992 88.5586 9.05706C89.2138 8.79039 89.9749 8.65706 90.8422 8.65706C91.4443 8.65706 92.0199 8.72944 92.569 8.8742C93.1181 9.01896 93.6086 9.23801 94.0403 9.53134C94.472 9.82849 94.8128 10.2113 95.0628 10.6799C95.3165 11.1485 95.4433 11.7047 95.4433 12.3485V19.7142H92.5804V18.1885H92.5009C92.3267 18.5352 92.0938 18.8361 91.8022 19.0913C91.5106 19.3504 91.1622 19.5523 90.757 19.6971C90.348 19.8456 89.8746 19.9199 89.3368 19.9199ZM90.2003 17.8285C90.6396 17.8285 91.0296 17.739 91.3704 17.5599C91.7113 17.3809 91.9764 17.1409 92.1657 16.8399C92.3588 16.5352 92.4554 16.1942 92.4554 15.8171V14.6571C92.3645 14.7142 92.2358 14.7694 92.0691 14.8228C91.9063 14.8723 91.7245 14.918 91.5238 14.9599C91.3231 14.998 91.1224 15.0323 90.9217 15.0628C90.721 15.0894 90.5392 15.1161 90.3764 15.1428C90.0204 15.1961 89.7098 15.2799 89.4448 15.3942C89.1797 15.5085 88.9733 15.6609 88.8256 15.8513C88.6817 16.0456 88.6097 16.2856 88.6097 16.5713C88.6097 16.979 88.7593 17.2913 89.0585 17.5085C89.3539 17.7218 89.7345 17.8285 90.2003 17.8285Z" fill="#4A4A4A"/>
</g>
<defs>
<clipPath id="clip0_663_4439">
<rect width="96" height="24" fill="white"/>
</clipPath>
</defs>
</svg>
