<svg width="11" height="6" viewBox="0 0 11 6" fill="none" xmlns="http://www.w3.org/2000/svg">
<path d="M5.14646 5.85403L0.14646 0.854028C0.100004 0.807573 0.0631551 0.752423 0.0380134 0.691726C0.0128717 0.63103 -6.86893e-05 0.565975 -6.86864e-05 0.500278C-6.86835e-05 0.434581 0.0128717 0.369526 0.0380134 0.30883C0.0631552 0.248133 0.100004 0.192983 0.14646 0.146528C0.192915 0.100073 0.248065 0.0632225 0.308762 0.0380812C0.369458 0.0129399 0.434512 1.49837e-08 0.50021 1.78554e-08C0.565907 2.07271e-08 0.630961 0.0129399 0.691658 0.0380812C0.752355 0.0632225 0.807505 0.100073 0.85396 0.146528L5.50021 4.7934L10.1465 0.146528C10.2403 0.0527079 10.3675 4.48181e-07 10.5002 4.54969e-07C10.6329 4.61758e-07 10.7601 0.0527079 10.854 0.146528C10.9478 0.240349 11.0005 0.367596 11.0005 0.500278C11.0005 0.63296 10.9478 0.760208 10.854 0.854029L5.85396 5.85403C5.80752 5.90052 5.75238 5.9374 5.69168 5.96256C5.63098 5.98772 5.56592 6.00067 5.50021 6.00067C5.4345 6.00067 5.36944 5.98772 5.30874 5.96256C5.24804 5.9374 5.1929 5.90052 5.14646 5.85403Z" fill="#E2EAFF"/>
</svg>
